<?xml version="1.0" encoding="UTF-8" standalone="no"?>
<svg width="67px" height="46px" viewBox="0 0 67 46" version="1.1" xmlns="http://www.w3.org/2000/svg" xmlns:xlink="http://www.w3.org/1999/xlink">
    <!-- Generator: Sketch 46.2 (44496) - http://www.bohemiancoding.com/sketch -->
    <title>Page 1</title>
    <desc>Created with Sketch.</desc>
    <defs>
        <polygon id="path-1" points="0 45.6882063 66.220234 45.6882063 66.220234 0.00014375 0 0.00014375"></polygon>
    </defs>
    <g id="Page-1" stroke="none" stroke-width="1" fill="none" fill-rule="evenodd">
        <g id="1.ArtWolf---Large-Desktop" transform="translate(-378.000000, -1870.000000)">
            <g id="Page-1" transform="translate(378.000000, 1870.000000)">
                <path d="M34.6799128,42.4036625 C36.2765085,44.495225 43.1404447,44.495225 43.1404447,44.495225 L43.1404447,45.472725 L29.7703809,45.472725 L16.4017426,45.472725 L16.4017426,44.495225 C16.4017426,44.495225 23.2656787,44.495225 24.8622745,42.4036625 C26.4588702,40.3121 26.5971468,38.7495375 26.5971468,38.7495375 L29.7703809,38.7495375 L32.9436149,38.7495375 C32.9436149,38.7495375 33.083317,40.3121 34.6799128,42.4036625 Z" id="Fill-1" fill="#FEFEFE"></path>
                <mask id="mask-2" fill="white">
                    <use xlink:href="#path-1"></use>
                </mask>
                <g id="Clip-4"></g>
                <polygon id="Fill-3" fill="#FEFEFE" mask="url(#mask-2)" points="6.82687234 28.1636437 52.7161702 28.1636437 52.7161702 2.96858125 6.82687234 2.96858125"></polygon>
                <path d="M6.59023404,28.4037063 L52.951383,28.4037063 L52.951383,2.73139375 L6.59023404,2.73139375 L6.59023404,28.4037063 Z M55.476,31.3419563 L55.476,2.24408125 C55.476,1.01070625 54.4738511,0.00014375 53.2507447,0.00014375 L6.29229787,0.00014375 C5.06776596,0.00014375 4.06561702,1.01070625 4.06561702,2.24408125 L4.06561702,31.3419563 L55.476,31.3419563 Z" id="Fill-5" fill="#FEFEFE" mask="url(#mask-2)"></path>
                <path d="M29.7709511,36.4585937 C28.6846957,36.4585937 27.8051426,35.5716562 27.8051426,34.4762812 C27.8051426,33.3809062 28.6846957,32.4939687 29.7709511,32.4939687 C30.8572064,32.4939687 31.7367596,33.3809062 31.7367596,34.4762812 C31.7367596,35.5716562 30.8572064,36.4585937 29.7709511,36.4585937 L29.7709511,36.4585937 Z M4.06575957,31.5797187 L4.06575957,35.4940312 C4.06575957,36.7288437 5.06790851,37.7394062 6.29244043,37.7394062 L53.2494617,37.7394062 C54.4739936,37.7394062 55.4761426,36.7288437 55.4761426,35.4940312 L55.4761426,31.5797187 L4.06575957,31.5797187 Z" id="Fill-6" fill="#FEFEFE" mask="url(#mask-2)"></path>
                <polygon id="Fill-7" fill="#FEFEFE" mask="url(#mask-2)" points="0.969361702 43.3752687 7.23742553 43.3752687 7.23742553 32.7722688 0.969361702 32.7722688"></polygon>
                <path d="M7.34377021,32.6647437 L7.12994043,32.6647437 L1.07570638,32.6647437 L0.861876596,32.6647437 L0.861876596,32.8803688 L0.861876596,43.2677437 L0.861876596,43.4833687 L1.07570638,43.4833687 L7.12994043,43.4833687 L7.34377021,43.4833687 L7.34377021,43.2677437 L7.34377021,32.8803688 L7.34377021,32.6647437 Z M1.07570638,43.2677437 L7.12994043,43.2677437 L7.12994043,32.8803688 L1.07570638,32.8803688 L1.07570638,43.2677437 Z" id="Fill-8" fill="#010202" mask="url(#mask-2)"></path>
                <path d="M0.969361702,43.3752687 L7.23742553,43.3752687 L7.23742553,32.7722688 L0.969361702,32.7722688 L0.969361702,43.3752687 Z M4.06561702,43.9818937 C3.83182979,43.9818937 3.64223404,44.1730812 3.64223404,44.4088312 C3.64223404,44.6445813 3.83182979,44.8372062 4.06561702,44.8372062 C4.30082979,44.8372062 4.49042553,44.6445813 4.49042553,44.4088312 C4.49042553,44.1730812 4.30082979,43.9818937 4.06561702,43.9818937 L4.06561702,43.9818937 Z M0.982191489,45.5803937 C0.49893617,45.5803937 0.106914894,45.1850812 0.106914894,44.6992062 L0.106914894,31.8177687 C0.106914894,31.3304563 0.49893617,30.9337063 0.982191489,30.9337063 L7.15046809,30.9337063 C7.63229787,30.9337063 8.02431915,31.3304563 8.02431915,31.8177687 L8.02431915,44.6992062 C8.02431915,45.1850812 7.63229787,45.5803937 7.15046809,45.5803937 L0.982191489,45.5803937 Z" id="Fill-9" fill="#FEFEFE" mask="url(#mask-2)"></path>
                <path d="M4.06575957,44.7289625 C3.89041915,44.7289625 3.74786596,44.5852125 3.74786596,44.4084 C3.74786596,44.2315875 3.89041915,44.0878375 4.06575957,44.0878375 C4.2411,44.0878375 4.38365319,44.2315875 4.38365319,44.4084 C4.38365319,44.5852125 4.2411,44.7289625 4.06575957,44.7289625 L4.06575957,44.7289625 Z M1.07499362,43.267025 L7.12922766,43.267025 L7.12922766,32.87965 L1.07499362,32.87965 L1.07499362,43.267025 Z M7.14918511,30.8269 L0.982334043,30.8269 C0.440631915,30.8269 0.000142553191,31.2710875 0.000142553191,31.8173375 L0.000142553191,44.698775 C0.000142553191,45.2435875 0.440631915,45.687775 0.982334043,45.687775 L7.14918511,45.687775 C7.69088723,45.687775 8.1313766,45.2435875 8.1313766,44.698775 L8.1313766,31.8173375 C8.1313766,31.2710875 7.69088723,30.8269 7.14918511,30.8269 L7.14918511,30.8269 Z M4.06575957,44.9445875 C4.35941915,44.9445875 4.59748298,44.704525 4.59748298,44.4084 C4.59748298,44.112275 4.35941915,43.8722125 4.06575957,43.8722125 C3.7721,43.8722125 3.53403617,44.112275 3.53403617,44.4084 C3.53403617,44.704525 3.7721,44.9445875 4.06575957,44.9445875 L4.06575957,44.9445875 Z M0.862589362,43.4840875 L7.34448298,43.4840875 L7.34448298,32.6654625 L0.862589362,32.6654625 L0.862589362,43.4840875 Z M3.52405745,31.8633375 L4.6074617,31.8633375 C4.66448298,31.8633375 4.71152553,31.8159 4.71152553,31.7584 C4.71152553,31.7009 4.66448298,31.6534625 4.6074617,31.6534625 L3.52405745,31.6534625 C3.46703617,31.6534625 3.41999362,31.7009 3.41999362,31.7584 C3.41999362,31.8159 3.46703617,31.8633375 3.52405745,31.8633375 L3.52405745,31.8633375 Z M2.9723766,31.9064625 C3.05505745,31.9064625 3.12063191,31.8403375 3.12063191,31.7584 C3.12063191,31.6764625 3.05505745,31.6089 2.9723766,31.6089 C2.89112128,31.6089 2.82554681,31.6764625 2.82554681,31.7584 C2.82554681,31.8403375 2.89112128,31.9064625 2.9723766,31.9064625 L2.9723766,31.9064625 Z M7.14918511,31.042525 C7.57256809,31.042525 7.91754681,31.3904 7.91754681,31.8173375 L7.91754681,44.698775 C7.91754681,45.124275 7.57256809,45.47215 7.14918511,45.47215 L0.982334043,45.47215 C0.558951064,45.47215 0.21397234,45.124275 0.21397234,44.698775 L0.21397234,31.8173375 C0.21397234,31.3904 0.558951064,31.042525 0.982334043,31.042525 L7.14918511,31.042525 L7.14918511,31.042525 Z" id="Fill-10" fill="#010202" mask="url(#mask-2)"></path>
                <path d="M46.1444681,41.8385812 L65.0684043,41.8385812 L65.0684043,18.5712062 L46.1444681,18.5712062 L46.1444681,41.8385812 Z M55.476,44.5511437 C54.9685106,44.5511437 54.5579574,44.1371437 54.5579574,43.6253938 C54.5579574,43.1136438 54.9685106,42.6996437 55.476,42.6996437 C55.9834894,42.6996437 56.3940426,43.1136438 56.3940426,43.6253938 C56.3940426,44.1371437 55.9834894,44.5511437 55.476,44.5511437 L55.476,44.5511437 Z M55.476,17.5390812 C55.5658085,17.5390812 55.6399362,17.6123938 55.6399362,17.7043938 C55.6399362,17.7949563 55.5658085,17.8682687 55.476,17.8682687 C55.3861915,17.8682687 55.3120638,17.7949563 55.3120638,17.7043938 C55.3120638,17.6123938 55.3861915,17.5390812 55.476,17.5390812 L55.476,17.5390812 Z M64.6621277,16.6118938 L46.2898723,16.6118938 C45.4915745,16.6118938 44.8386809,17.2702687 44.8386809,18.0752687 L44.8386809,44.0092063 C44.8386809,44.8142062 45.4915745,45.4725813 46.2898723,45.4725813 L64.6621277,45.4725813 C65.4604255,45.4725813 66.1133191,44.8142062 66.1133191,44.0092063 L66.1133191,18.0752687 C66.1133191,17.2702687 65.4604255,16.6118938 64.6621277,16.6118938 L64.6621277,16.6118938 Z" id="Fill-11" fill="#FEFEFE" mask="url(#mask-2)"></path>
                <path d="M46.1444681,41.8385812 L65.0684043,41.8385812 L65.0684043,18.5712062 L46.1444681,18.5712062 L46.1444681,41.8385812 Z M55.476,44.5511437 C54.9685106,44.5511437 54.5579574,44.1371437 54.5579574,43.6253938 C54.5579574,43.1136438 54.9685106,42.6996437 55.476,42.6996437 C55.9834894,42.6996437 56.3940426,43.1136438 56.3940426,43.6253938 C56.3940426,44.1371437 55.9834894,44.5511437 55.476,44.5511437 Z M55.476,17.5390812 C55.5658085,17.5390812 55.6399362,17.6123938 55.6399362,17.7043938 C55.6399362,17.7949563 55.5658085,17.8682687 55.476,17.8682687 C55.3861915,17.8682687 55.3120638,17.7949563 55.3120638,17.7043938 C55.3120638,17.6123938 55.3861915,17.5390812 55.476,17.5390812 Z M64.6621277,16.6118938 L46.2898723,16.6118938 C45.4915745,16.6118938 44.8386809,17.2702687 44.8386809,18.0752687 L44.8386809,44.0092063 C44.8386809,44.8142062 45.4915745,45.4725813 46.2898723,45.4725813 L64.6621277,45.4725813 C65.4604255,45.4725813 66.1133191,44.8142062 66.1133191,44.0092063 L66.1133191,18.0752687 C66.1133191,17.2702687 65.4604255,16.6118938 64.6621277,16.6118938 Z" id="Stroke-12" stroke="#010202" stroke-width="0.5" mask="url(#mask-2)"></path>
                <polygon id="Fill-13" fill="#FEFEFE" mask="url(#mask-2)" points="46.3568723 41.6229563 64.8531489 41.6229563 64.8531489 18.7882688 46.3568723 18.7882688"></polygon>
                <polygon id="Stroke-14" stroke="#010202" stroke-width="0.5" mask="url(#mask-2)" points="46.3568723 41.6229563 64.8531489 41.6229563 64.8531489 18.7882688 46.3568723 18.7882688"></polygon>
            </g>
        </g>
    </g>
</svg>