<?xml version="1.0" encoding="UTF-8" standalone="no"?>
<svg width="76px" height="76px" viewBox="0 0 76 76" version="1.1" xmlns="http://www.w3.org/2000/svg" xmlns:xlink="http://www.w3.org/1999/xlink">
    <!-- Generator: Sketch 46.2 (44496) - http://www.bohemiancoding.com/sketch -->
    <title>Page 1</title>
    <desc>Created with Sketch.</desc>
    <defs></defs>
    <g id="Page-1" stroke="none" stroke-width="1" fill="none" fill-rule="evenodd">
        <g id="1.ArtWolf---Large-Desktop" transform="translate(-922.000000, -5750.000000)" fill="#231F20">
            <g id="Page-1" transform="translate(922.000000, 5750.000000)">
                <g id="Group-3">
                    <path d="M69.6524739,38.1340988 C69.578,20.64189 55.8233735,6.8762755 38.9110843,6.39326345 C20.528241,5.86828353 6.39605622,20.6834 6.29014458,37.7438739 C6.18102811,55.3352795 20.1381687,69.5449904 37.8399116,69.7215606 C55.2277349,69.8949261 69.4615582,55.7618257 69.6524739,38.1340988 M38.0192289,0.106628916 C58.9451727,0.118074699 76.0788996,17.0975124 75.9098072,38.3532474 C75.740257,59.663159 58.2515582,76.324404 37.3521687,75.9952233 C16.8463614,75.6722996 -0.0572289157,59.0540908 0.000152610442,37.9839301 C0.0587550201,16.4457133 17.5611888,0.0159783133 38.0192289,0.106628916" id="Fill-1"></path>
                </g>
                <path d="M25.6667483,16.2115838 C26.4160336,16.0726038 26.9741684,16.3964349 27.4111494,16.9424821 C29.3583415,19.37562 30.9462075,22.0166964 32.0646214,24.9260118 C32.7183315,26.6262769 32.5821674,28.2972271 31.601296,29.797452 C31.2000026,30.4110906 30.4534743,30.8371442 29.7991516,31.2469454 C28.2521808,32.2160084 28.2460541,32.1886681 28.7407785,33.9319182 C29.1043932,35.2134205 29.8784913,36.2430879 30.7466329,37.2130622 C33.6523343,40.4598789 36.9208845,43.3233233 40.3173278,46.0462688 C41.6909154,47.1474768 43.3161538,47.6652723 45.060708,47.7497236 C45.4626141,47.7693175 45.9544282,47.5700368 46.2759225,47.3130377 C47.1881758,46.5836583 48.0117463,45.745677 48.9183324,45.0087031 C49.2009227,44.7788924 49.6375973,44.6213817 50.0019778,44.6248752 C51.3953237,44.6380897 52.7297009,44.9477949 53.9709536,45.6089753 C55.963789,46.670236 57.7863044,47.9546242 59.3306714,49.6040059 C60.1421418,50.4705426 60.7970772,51.444618 60.9808757,52.630581 C61.044133,53.0381038 60.9464135,53.5407103 60.7476048,53.9066152 C58.6795652,57.7145163 50.2381589,60.1557044 49.8635163,59.99227 C44.0907113,57.4734657 38.9860139,53.9468662 34.1844309,49.9187235 C26.8755299,43.7868939 21.3248148,36.3322478 17.0234701,27.9137029 C16.7569622,27.3921101 18.8030992,20.1944631 20.9774356,17.8150945 C21.096292,17.685076 21.2267889,17.5309069 21.3836303,17.4748592 C22.7881573,16.9721008 24.2000362,16.4889363 25.6096176,16 C25.6286102,16.0704773 25.6477558,16.1411065 25.6667483,16.2115838" id="Fill-4"></path>
            </g>
        </g>
    </g>
</svg>