<?xml version="1.0" encoding="UTF-8" standalone="no"?>
<svg width="100px" height="101px" viewBox="0 0 100 101" version="1.1" xmlns="http://www.w3.org/2000/svg" xmlns:xlink="http://www.w3.org/1999/xlink">
    <!-- Generator: Sketch 46.2 (44496) - http://www.bohemiancoding.com/sketch -->
    <title>ic_ecomerce</title>
    <desc>Created with Sketch.</desc>
    <defs></defs>
    <g id="Page-1" stroke="none" stroke-width="1" fill="none" fill-rule="evenodd">
        <g id="1.ArtWolf---Large-Desktop" transform="translate(-1395.000000, -1000.000000)">
            <g id="ic_ecomerce" transform="translate(1395.000000, 1000.500000)">
                <rect id="Rectangle" fill="#FFFFFF" x="0" y="0" width="100" height="100"></rect>
                <g id="Group" stroke-width="1" transform="translate(19.000000, 23.000000)" fill="#434242">
                    <path d="M55.6356962,22.5773188 C55.4338462,22.9173403 55.1734212,23.2539493 54.8582712,23.5668073 C53.6167837,24.7991293 52.0059712,25.1981188 51.2601712,24.4578793 C50.5145087,23.7176398 50.9164212,22.1184058 52.1579087,20.8860838 C53.3993962,19.6536253 55.0102087,19.2546358 55.7558712,19.9948753 C55.8181587,20.0567098 55.8695837,20.1264613 55.9159212,20.1996253 L55.6356962,22.5773188 Z M50.8318587,30.9373978 C49.5903712,32.1698563 47.9795587,32.5688458 47.2337587,31.8284698 C46.4880962,31.0882303 46.8900087,29.4891328 48.1314962,28.2566743 C49.3728462,27.0242158 50.9837962,26.6252263 51.7294587,27.3656023 C52.4751212,28.1058418 52.0733462,29.7049393 50.8318587,30.9373978 L50.8318587,30.9373978 Z M43.9337587,24.4578793 C43.1880962,23.7176398 43.5900087,22.1184058 44.8314962,20.8860838 C46.0728462,19.6536253 47.6837962,19.2546358 48.4294587,19.9948753 C49.1751212,20.7352513 48.7733462,22.3343488 47.5318587,23.5668073 C46.2903712,24.7991293 44.6795587,25.1981188 43.9337587,24.4578793 L43.9337587,24.4578793 Z M43.5054462,30.9373978 C42.2639587,32.1698563 40.6530087,32.5688458 39.9073462,31.8284698 C39.1616837,31.0882303 39.5635962,29.4891328 40.8050837,28.2566743 C42.0464337,27.0242158 43.6573837,26.6252263 44.4030462,27.3656023 C45.1487087,28.1058418 44.7467962,29.7049393 43.5054462,30.9373978 L43.5054462,30.9373978 Z M36.6073462,24.4578793 C35.8616837,23.7176398 36.2635962,22.1184058 37.5050837,20.8860838 C38.7464337,19.6536253 40.3573837,19.2546358 41.1030462,19.9948753 C41.8487087,20.7352513 41.4467962,22.3343488 40.2054462,23.5668073 C38.9639587,24.7991293 37.3530087,25.1981188 36.6073462,24.4578793 L36.6073462,24.4578793 Z M36.1788962,30.9373978 C34.9375462,32.1698563 33.3265962,32.5688458 32.5809337,31.8284698 C31.8352712,31.0882303 32.2371837,29.4891328 33.4786712,28.2566743 C34.7200212,27.0242158 36.3309712,26.6252263 37.0766337,27.3656023 C37.8222962,28.1058418 37.4203837,29.7049393 36.1788962,30.9373978 L36.1788962,30.9373978 Z M22.8521212,20.8860838 C24.0936087,19.6536253 25.7045587,19.2546358 26.4502212,19.9948753 C27.1958837,20.7352513 26.7939712,22.3343488 25.5524837,23.5668073 C24.3111337,24.7991293 22.7001837,25.1981188 21.9545212,24.4578793 C21.2088587,23.7176398 21.6107712,22.1184058 22.8521212,20.8860838 L22.8521212,20.8860838 Z M29.7502212,27.3656023 C30.4958837,28.1058418 30.0939712,29.7049393 28.8524837,30.9373978 C27.6111337,32.1698563 26.0001837,32.5688458 25.2545212,31.8284698 C24.5088587,31.0882303 24.9107712,29.4891328 26.1521212,28.2566743 C27.3936087,27.0242158 29.0045587,26.6252263 29.7502212,27.3656023 L29.7502212,27.3656023 Z M30.1786712,20.8860838 C31.4200212,19.6536253 33.0309712,19.2546358 33.7766337,19.9948753 C34.5222962,20.7352513 34.1203837,22.3343488 32.8788962,23.5668073 C31.6375462,24.7991293 30.0265962,25.1981188 29.2809337,24.4578793 C28.5352712,23.7176398 28.9371837,22.1184058 30.1786712,20.8860838 L30.1786712,20.8860838 Z M59.9569087,13.9116163 C59.2666587,13.4527033 58.4439962,13.2303448 57.6132212,13.2303448 L17.2172337,13.2303448 L12.9738462,2.5417123 C12.4909462,1.3235863 11.3267337,0.5365273 10.0079712,0.5365273 L2.02320875,0.5365273 C1.01629625,0.5365273 0.19995875,1.3467913 0.19995875,2.3463808 L0.19995875,4.1865373 C0.19995875,5.1861268 1.01629625,5.9965273 2.02320875,5.9965273 L8.43359625,5.9965273 L21.2017087,38.1570193 C21.2241212,38.2136668 21.2503837,38.2681303 21.2752712,38.3232763 C21.5641587,39.4762918 22.0811587,40.5801673 22.8207712,41.5781188 C24.5916337,43.9672783 27.3210087,45.3376018 30.3091587,45.3376018 L57.2392212,45.3376018 C58.1490587,45.3376018 58.8867462,44.6052793 58.8867462,43.7020588 L58.8867462,41.5130083 C58.8867462,40.6097878 58.1490587,39.8776018 57.2392212,39.8776018 L34.8232837,39.8776018 L56.0800962,38.0194273 C57.9961587,37.8522148 59.5492212,36.3539908 59.7727962,34.4573233 L61.7423462,17.7491773 C61.9172462,16.2667873 61.2546337,14.7747058 59.9569087,13.9116163 L59.9569087,13.9116163 Z" id="Fill-1"></path>
                    <path d="M31.9023575,50.6255845 C31.9023575,53.037949 29.932395,54.9935845 27.5023575,54.9935845 C25.07232,54.9935845 23.1023575,53.037949 23.1023575,50.6255845 C23.1023575,48.21322 25.07232,46.2575845 27.5023575,46.2575845 C29.932395,46.2575845 31.9023575,48.21322 31.9023575,50.6255845" id="Fill-4"></path>
                    <path d="M59.6855113,50.6255845 C59.6855113,53.037949 57.7155488,54.9935845 55.2855113,54.9935845 C52.8554738,54.9935845 50.8855113,53.037949 50.8855113,50.6255845 C50.8855113,48.21322 52.8554738,46.2575845 55.2855113,46.2575845 C57.7155488,46.2575845 59.6855113,48.21322 59.6855113,50.6255845" id="Fill-6"></path>
                </g>
            </g>
        </g>
    </g>
</svg>