<?xml version="1.0" encoding="UTF-8" standalone="no"?>
<svg width="44px" height="64px" viewBox="0 0 44 64" version="1.1" xmlns="http://www.w3.org/2000/svg" xmlns:xlink="http://www.w3.org/1999/xlink">
    <!-- Generator: Sketch 46.2 (44496) - http://www.bohemiancoding.com/sketch -->
    <title>Page 1</title>
    <desc>Created with Sketch.</desc>
    <defs></defs>
    <g id="Page-1" stroke="none" stroke-width="1" fill="none" fill-rule="evenodd">
        <g id="1.ArtWolf---Large-Desktop" transform="translate(-1462.000000, -1878.000000)" fill="#FEFEFE">
            <g id="Page-1" transform="translate(1462.000000, 1878.000000)">
                <g id="Group-3" transform="translate(0.000000, 12.456907)">
                    <path d="M35.7861991,9.35039208 L8.13649553,9.35039208 C8.63933788,15.0239327 9.13995435,20.6720845 9.64346965,26.3531203 L28.7185049,26.3531203 C28.6706744,26.9492045 28.6290555,27.5071261 28.580552,28.0644144 C28.4839073,29.1748209 28.3826555,30.2848581 28.2849238,31.3951591 C28.2279826,32.0422849 28.173112,32.6895162 28.1196908,33.3369587 C28.1039026,33.5282461 28.0391449,33.6398304 27.8284626,33.696256 C25.932632,34.2039278 24.0411496,34.7282263 22.146872,35.2417042 C22.0376485,35.271263 21.9079261,35.2765414 21.7996861,35.2472993 C19.8704673,34.7260094 17.9435779,34.1960102 16.0144626,33.6744036 C15.8827732,33.6387748 15.8349944,33.5845661 15.8233991,33.4472234 C15.7100344,32.1079475 15.5825896,30.7698329 15.4780767,29.4298708 C15.4594414,29.1907616 15.3934932,29.1218263 15.1591026,29.1231987 C13.4941944,29.1330692 11.8292344,29.1282659 10.1643261,29.1290576 C10.081192,29.1291104 9.99805788,29.1378725 9.88764376,29.1441009 C9.93226494,29.666077 9.97429788,30.1632976 10.0173144,30.6604127 C10.1096108,31.7281702 10.2011308,32.7959278 10.2953426,33.8634741 C10.4081379,35.1409933 10.5297849,36.4177207 10.6313473,37.6961372 C10.6480673,37.906849 10.7109096,38.0007508 10.9107732,38.0572292 C14.5011732,39.0724144 18.0891402,40.0964671 21.6803685,41.1086964 C21.8506226,41.1567294 22.0566979,41.154143 22.2275732,41.1063212 C24.6142367,40.4388737 26.9973285,39.7580721 29.3820767,39.0833405 C30.599272,38.7389282 31.8187967,38.4031195 33.0342838,38.0525842 C33.1284438,38.0254535 33.2617896,37.9197282 33.2705896,37.8385471 C33.3564673,37.0446304 33.4201896,36.2482857 33.4892438,35.4525216 C33.5643544,34.5868193 33.6372391,33.7209059 33.7133332,32.8553092 C33.8101849,31.7536119 33.9100908,30.6522313 34.0070461,29.5505867 C34.0824673,28.6936465 34.1540579,27.8363896 34.2296344,26.9794494 C34.3267967,25.8778576 34.4275826,24.7765298 34.5243308,23.6748853 C34.5995967,22.8179979 34.6646649,21.9601075 34.7469708,21.1039063 C34.7871402,20.6864416 34.8003402,20.6874445 34.3840485,20.6874445 C30.5538226,20.6873389 26.7235967,20.6872861 22.8934226,20.68755 C22.5914791,20.68755 22.2895873,20.6901892 21.9876955,20.6906115 C19.632712,20.6939368 17.2777802,20.6963121 14.9228485,20.7019071 C14.7771308,20.7022238 14.7075591,20.6609999 14.6935826,20.4973183 C14.5618932,18.9569372 14.4220767,17.4172424 14.2865567,15.8772308 C14.2615026,15.5925166 14.2451449,15.3070634 14.2226791,14.9927904 C14.3695873,14.9927904 14.4800014,14.9926849 14.5904673,14.9927904 C17.1352202,14.9956407 19.6800249,15.0000746 22.2248296,15.0009191 C26.451832,15.0022387 30.6788861,15.0012886 34.9058885,15.0012358 C34.9748908,15.0012358 35.0532108,15.0213991 35.1105661,14.994849 C35.1817944,14.9618065 35.2818555,14.8957744 35.2895167,14.8337537 C35.3400391,14.4246288 35.3677332,14.0126007 35.4053144,13.6017867 C35.4836861,12.7453216 35.5649567,11.8891731 35.6422932,11.0326552 C35.6919355,10.4825455 35.7366085,9.93206631 35.7861991,9.35039208 M21.9838649,50.8833042 L21.8803355,50.8833042 C21.804552,50.8478337 21.7318226,50.8010148 21.6524673,50.7785818 C17.3330649,49.5587022 13.0130414,48.3408812 8.69312141,47.122849 C7.19230729,46.6996836 5.69092376,46.2786296 4.19238729,45.84723 C4.10966729,45.8234247 3.99614729,45.7185966 3.98900376,45.6424828 C3.85529553,44.2168003 3.73613318,42.7896927 3.61257082,41.3630073 C3.52234494,40.3214304 3.43030729,39.2799591 3.33889082,38.2384878 C3.22433553,36.9344713 3.10910729,35.6305603 2.99506965,34.3265438 C2.90168612,33.2587863 2.81032141,32.1907649 2.71683435,31.1230073 C2.60341788,29.8277529 2.48777553,28.5326568 2.37477318,27.2373496 C2.26399671,25.9682758 2.15611906,24.6988853 2.04539435,23.4297587 C1.93161553,22.1257422 1.81524847,20.8219368 1.70110729,19.5179203 C1.60762024,18.4501628 1.51625553,17.3821941 1.42297553,16.3143838 C1.30904141,15.0103673 1.19365788,13.7064564 1.07962024,12.4024399 C0.986236706,11.3346824 0.894509647,10.2667137 0.801022588,9.19895621 C0.687606118,7.90370177 0.573361412,6.60850012 0.459013176,5.31329847 C0.361695529,4.21070384 0.262669647,3.10821476 0.166387294,2.00546177 C0.109187294,1.35078796 0.0558696471,0.695797443 1.55294118e-05,0.0316753814 L43.9690085,0.0316753814 C43.8764014,1.10471126 43.7866932,2.15468074 43.6950179,3.20443909 C43.581912,4.49974631 43.4664249,5.79484239 43.3533708,7.09014961 C43.2601944,8.15790713 43.1700202,9.22598136 43.0766367,10.2937389 C42.9626508,11.5977554 42.8459214,12.901508 42.7318838,14.2055245 C42.6216767,15.465889 42.514472,16.7264647 42.4040061,17.9867764 C42.2905379,19.2820308 42.1734461,20.5769686 42.0602367,21.872223 C41.9493567,23.1412968 41.8428249,24.4107929 41.7316344,25.6798667 C41.6188908,26.9663591 41.5010744,28.2524292 41.3886932,29.5389744 C41.2770885,30.8168102 41.1713332,32.0951739 41.0595732,33.3730098 C40.9470367,34.6595022 40.828392,35.9454667 40.7160108,37.2320119 C40.6044061,38.5098478 40.4994791,39.7882642 40.387512,41.0660473 C40.2578932,42.5450939 40.1166273,44.0230849 39.999432,45.5031344 C39.9818838,45.7242445 39.904392,45.7998304 39.7130696,45.8536696 C34.3869473,47.3519294 29.061912,48.8542007 23.7374979,50.3587418 C23.1504861,50.5245875 22.5682885,50.7080102 21.9838649,50.8833042" id="Fill-1"></path>
                </g>
                <path d="M31.8709445,0 C31.8668551,0.105197526 31.8591421,0.210395052 31.8591421,0.315592577 C31.8584692,2.94505567 31.8585727,5.57451876 31.8585727,8.20403464 C31.8585727,8.30749031 31.8585727,8.4108932 31.8585727,8.52933938 L29.0607421,8.52933938 L29.0607421,4.43566186 C29.038328,4.4294334 29.0159139,4.42320495 28.9935515,4.41697649 C28.3727374,5.38988206 27.7519751,6.36284041 27.1043468,7.37781443 C26.4608598,6.36970227 25.8355939,5.39004041 25.2102762,4.41037856 C25.1933492,4.41428454 25.1763704,4.4182433 25.1594433,4.42220206 L25.1594433,8.52833649 L22.3980033,8.52833649 L22.3980033,0 L25.3485915,0 C25.9347751,0.989743505 26.5210104,1.97948701 27.1252598,2.99973938 C27.7384127,1.97515876 28.3293586,0.987579381 28.9203562,0 L31.8709445,0 Z" id="Fill-4"></path>
                <path d="M12.2521209,0 C12.2482904,0.105250309 12.2411468,0.210553402 12.2410951,0.315803711 C12.2404739,2.94605856 12.2406292,5.5763134 12.2406292,8.20656825 C12.2406292,8.30954887 12.2406292,8.41258227 12.2406292,8.53028948 L9.44150447,8.53028948 L9.44150447,5.71011959 L6.90348094,5.71011959 L6.90348094,8.52601402 L4.07329741,8.52601402 L4.07329741,0 L6.86859153,0 L6.86859153,2.79515052 L9.43410212,2.79515052 C9.43410212,2.65896907 9.43311859,2.53798928 9.43425741,2.41706227 C9.44150447,1.61137485 9.44926918,0.805687423 9.45682682,0 L12.2521209,0 Z" id="Fill-6"></path>
                <polygon id="Fill-8" points="21.2074151 0 21.2074151 2.84117773 18.7278856 2.84117773 18.7278856 8.52221361 15.9293821 8.52221361 15.9293821 2.86419134 13.4427092 2.86419134 13.4427092 0"></polygon>
                <path d="M36.0121209,0 C36.0148127,1.78497979 36.0175045,3.5699068 36.0201445,5.3548866 C36.0202998,5.4588701 36.0201962,5.56285361 36.0201962,5.70014351 L39.970568,5.70014351 L39.970568,8.52933938 L33.2168268,8.52933938 L33.2168268,0 L36.0121209,0 Z" id="Fill-10"></path>
            </g>
        </g>
    </g>
</svg>