<?xml version="1.0" encoding="UTF-8" standalone="no"?>
<svg width="50px" height="50px" viewBox="0 0 50 50" version="1.1" xmlns="http://www.w3.org/2000/svg" xmlns:xlink="http://www.w3.org/1999/xlink">
    <!-- Generator: Sketch 46.2 (44496) - http://www.bohemiancoding.com/sketch -->
    <title>Page 1</title>
    <desc>Created with Sketch.</desc>
    <defs></defs>
    <g id="Page-1" stroke="none" stroke-width="1" fill="none" fill-rule="evenodd">
        <g id="1.ArtWolf---Large-Desktop" transform="translate(-751.000000, -1884.000000)" fill="#FEFEFE">
            <g id="Page-1" transform="translate(751.000000, 1884.000000)">
                <path d="M25,15.7894737 L25,15.7894737 C23.6333333,15.7894737 22.5149123,14.6710526 22.5149123,13.304386 L22.5149123,2.48508772 C22.5149123,1.11842105 23.6333333,0 25,0 L25,0 C26.3666667,0 27.4850877,1.11842105 27.4850877,2.48508772 L27.4850877,13.304386 C27.4850877,14.6710526 26.3666667,15.7894737 25,15.7894737" id="Fill-1"></path>
                <path d="M18.5477193,18.3410526 L18.5477193,18.3410526 C17.5810526,19.3077193 15.9994737,19.3077193 15.032807,18.3410526 L7.38280702,10.6910526 C6.41614035,9.72438596 6.41614035,8.14280702 7.38280702,7.17614035 L7.38280702,7.17614035 C8.34947368,6.20947368 9.93105263,6.20947368 10.8977193,7.17614035 L18.5477193,14.8261404 C19.514386,15.792807 19.514386,17.374386 18.5477193,18.3410526" id="Fill-3" opacity="0.20313899"></path>
                <path d="M15.7894737,24.7076316 L15.7894737,24.7076316 C15.7894737,26.0742982 14.6710526,27.1927193 13.304386,27.1927193 L2.48508772,27.1927193 C1.11842105,27.1927193 0,26.0742982 0,24.7076316 L0,24.7076316 C0,23.3409649 1.11842105,22.2225439 2.48508772,22.2225439 L13.304386,22.2225439 C14.6710526,22.2225439 15.7894737,23.3409649 15.7894737,24.7076316" id="Fill-5" opacity="0.39951492"></path>
                <path d="M18.3409649,31.1599123 L18.3409649,31.1599123 C19.3076316,32.1265789 19.3076316,33.7081579 18.3409649,34.6748246 L10.6909649,42.3248246 C9.72429825,43.2914912 8.1427193,43.2914912 7.17605263,42.3248246 L7.17605263,42.3248246 C6.20938596,41.3581579 6.20938596,39.7765789 7.17605263,38.8099123 L14.8260526,31.1599123 C15.7927193,30.1932456 17.3742982,30.1932456 18.3409649,31.1599123" id="Fill-7" opacity="0.482201477"></path>
                <path d="M24.7076316,33.9181579 L24.7076316,33.9181579 C26.0742982,33.9181579 27.1927193,35.0365789 27.1927193,36.4032456 L27.1927193,47.2225439 C27.1927193,48.5892105 26.0742982,49.7076316 24.7076316,49.7076316 L24.7076316,49.7076316 C23.3409649,49.7076316 22.2225439,48.5892105 22.2225439,47.2225439 L22.2225439,36.4032456 C22.2225439,35.0365789 23.3409649,33.9181579 24.7076316,33.9181579" id="Fill-9" opacity="0.700867523"></path>
                <path d="M31.1598246,31.3666667 L31.1598246,31.3666667 C32.1264912,30.4 33.7080702,30.4 34.6747368,31.3666667 L42.3247368,39.0166667 C43.2914035,39.9833333 43.2914035,41.5649123 42.3247368,42.5315789 L42.3247368,42.5315789 C41.3580702,43.4982456 39.7764912,43.4982456 38.8098246,42.5315789 L31.1598246,34.8815789 C30.1931579,33.9149123 30.1931579,32.3333333 31.1598246,31.3666667" id="Fill-11" opacity="0.800000012"></path>
                <path d="M33.9181579,25 L33.9181579,25 C33.9181579,23.6333333 35.0365789,22.5149123 36.4032456,22.5149123 L47.2225439,22.5149123 C48.5892105,22.5149123 49.7076316,23.6333333 49.7076316,25 L49.7076316,25 C49.7076316,26.3666667 48.5892105,27.4850877 47.2225439,27.4850877 L36.4032456,27.4850877 C35.0365789,27.4850877 33.9181579,26.3666667 33.9181579,25" id="Fill-13" opacity="0.900000036"></path>
                <path d="M31.3665789,18.547807 L31.3665789,18.547807 C30.3999123,17.5811404 30.3999123,15.9995614 31.3665789,15.0328947 L39.0165789,7.38289474 C39.9832456,6.41622807 41.5648246,6.41622807 42.5314912,7.38289474 L42.5314912,7.38289474 C43.4981579,8.3495614 43.4981579,9.93114035 42.5314912,10.897807 L34.8814912,18.547807 C33.9148246,19.5144737 32.3332456,19.5144737 31.3665789,18.547807" id="Fill-15" opacity="0.948822319"></path>
            </g>
        </g>
    </g>
</svg>