<?xml version="1.0" encoding="UTF-8" standalone="no"?>
<svg width="100px" height="101px" viewBox="0 0 100 101" version="1.1" xmlns="http://www.w3.org/2000/svg" xmlns:xlink="http://www.w3.org/1999/xlink">
    <!-- Generator: Sketch 46.2 (44496) - http://www.bohemiancoding.com/sketch -->
    <title>ic_landing</title>
    <desc>Created with Sketch.</desc>
    <defs></defs>
    <g id="Page-1" stroke="none" stroke-width="1" fill="none" fill-rule="evenodd">
        <g id="1.ArtWolf---Large-Desktop" transform="translate(-919.000000, -990.000000)">
            <g id="ic_landing" transform="translate(919.000000, 990.500000)">
                <rect id="Rectangle" fill="#FFFFFF" fill-rule="evenodd" x="0" y="0" width="100" height="100"></rect>
                <polygon id="Fill-1" fill="#434242" fill-rule="evenodd" points="14 21.1641081 14 79.0174408 85.7048828 79.0174408 85.7048828 67.7423692 85.7048828 35.8457244 85.7048828 21.1641081"></polygon>
                <path d="M17.9293297,24.4411167 C17.9293297,24.9396274 17.5218262,25.3436213 17.0189848,25.3436213 C16.5161434,25.3436213 16.10864,24.9396274 16.10864,24.4411167 C16.10864,23.942606 16.5161434,23.5386122 17.0189848,23.5386122 C17.5218262,23.5386122 17.9293297,23.942606 17.9293297,24.4411167 Z" id="Fill-2" fill="#FEFEFE" fill-rule="evenodd"></path>
                <path d="M20.9827917,24.4411167 C20.9827917,24.9396274 20.5752883,25.3436213 20.0724469,25.3436213 C19.5696055,25.3436213 19.1621021,24.9396274 19.1621021,24.4411167 C19.1621021,23.942606 19.5696055,23.5386122 20.0724469,23.5386122 C20.5752883,23.5386122 20.9827917,23.942606 20.9827917,24.4411167" id="Fill-4" fill="#FEFEFE" fill-rule="evenodd"></path>
                <path d="M23.9664055,24.4411167 C23.9664055,24.9396274 23.5589021,25.3436213 23.0560607,25.3436213 C22.5532193,25.3436213 22.1457159,24.9396274 22.1457159,24.4411167 C22.1457159,23.942606 22.5532193,23.5386122 23.0560607,23.5386122 C23.5589021,23.5386122 23.9664055,23.942606 23.9664055,24.4411167" id="Fill-6" fill="#FEFEFE" fill-rule="evenodd"></path>
                <polygon id="Fill-8" fill="#FEFEFE" fill-rule="evenodd" points="14.1438345 28.123512 85.8487172 28.123512 85.8487172 27.5540172 14.1438345 27.5540172"></polygon>
                <polygon id="Fill-10" fill="#FEFEFE" fill-rule="evenodd" points="42.1847724 63.4172227 45.5613241 63.4172227 45.5613241 55.1880219 42.1847724 55.1880219"></polygon>
                <polygon id="Fill-11" fill="#FEFEFE" fill-rule="evenodd" points="48.3678345 63.4172227 51.7443862 63.4172227 51.7443862 49.9484085 48.3678345 49.9484085"></polygon>
                <polygon id="Fill-12" fill="#FEFEFE" fill-rule="evenodd" points="54.5508966 63.4172227 57.9274483 63.4172227 57.9274483 53.7871707 54.5508966 53.7871707"></polygon>
                <polygon id="Fill-13" fill="#FEFEFE" fill-rule="evenodd" points="60.7339586 63.4172227 64.1105103 63.4172227 64.1105103 50.8642045 60.7339586 50.8642045"></polygon>
                <polyline id="Stroke-14" stroke="#FEFEFE" stroke-width="0.818748" points="38.2455283 44.3552431 38.2455283 63.4172883 68.2124248 63.4172883"></polyline>
                <polyline id="Stroke-15" stroke="#FEFEFE" stroke-width="1.1462472" stroke-linecap="round" stroke-linejoin="round" points="42.0368993 49.6904563 51.8545545 43.3704629 54.6034648 47.2515607 64.42112 40.9373106"></polyline>
                <polyline id="Stroke-16" stroke="#FEFEFE" stroke-width="1.1462472" stroke-linecap="round" points="61.3685848 40.0734824 64.6168607 40.797127 63.8705434 44.09012"></polyline>
            </g>
        </g>
    </g>
</svg>