<?xml version="1.0" encoding="UTF-8" standalone="no"?>
<svg width="100px" height="101px" viewBox="0 0 100 101" version="1.1" xmlns="http://www.w3.org/2000/svg" xmlns:xlink="http://www.w3.org/1999/xlink">
    <!-- Generator: Sketch 46.2 (44496) - http://www.bohemiancoding.com/sketch -->
    <title>ic_logo</title>
    <desc>Created with Sketch.</desc>
    <defs></defs>
    <g id="Page-1" stroke="none" stroke-width="1" fill="none" fill-rule="evenodd">
        <g id="1.ArtWolf---Large-Desktop" transform="translate(-932.000000, -1312.000000)">
            <g id="ic_logo" transform="translate(932.000000, 1312.500000)">
                <rect id="Rectangle" fill="#FFFFFF" x="0" y="0" width="100" height="100"></rect>
                <path d="M77.8882949,81.9977278 L78.8566636,81.5825854 C78.8566636,81.5825854 75.4754162,76.341577 73.7059717,71.5641443 C72.0545975,67.1059759 73.4309035,53.9255332 73.4309035,53.9255332 L73.4305818,53.9258627 C74.1447939,51.3275983 74.5273157,48.5873288 74.5273157,45.7551349 C74.5273157,40.596496 73.255246,35.7436128 71.0215636,31.5002641 L75.476703,30.8706314 L71.8113793,28.4703834 L67.970398,27.610116 L62.0913384,22.2119465 L58.7303591,22.4290726 L48.612354,15 L47.4252177,17.6285764 L47.6343338,21.0254958 L49.886354,23.9156779 L48.1674192,24.4784265 L48.3681707,26.2338859 L54.8858389,32.1269315 L57.6152874,36.952468 C58.239097,38.7313204 58.5852646,40.6452588 58.5852646,42.643873 C58.5852646,51.9644795 51.2073247,59.5207306 42.105946,59.5207306 C41.2283015,59.5207306 40.3673864,59.4485749 39.5273828,59.3125005 C39.4212162,59.2953676 39.3160146,59.2746105 39.2104914,59.2555008 C38.6793364,59.1583047 38.1562242,59.0373862 37.6437288,58.88978 C37.6257126,58.8845084 37.6076965,58.8802252 37.590002,58.8749535 C37.4111273,58.8225665 37.2335394,58.7665552 37.0572384,58.7082376 C30.4263258,56.5244566 25.6263056,50.1602573 25.6263056,42.643873 C25.6263056,38.6644363 26.9759091,35.0115124 29.225999,32.1269315 C22.7996985,33.6151842 18,39.4943917 18,46.5257842 C18,54.6348996 24.3831904,61.2145776 32.2842424,61.2887102 C32.7278904,61.2857449 33.1647823,61.2567508 33.5984571,61.2155661 C32.5004364,62.4198086 30.943647,64.2365509 29.4161338,66.4025401 C28.3708747,67.8848621 27.8342505,68.9118454 27.4147313,69.7526736 L27.4147313,69.7526736 L27.4147313,69.7526736 C26.7159616,71.153944 26.3434131,72.0379338 24.4832444,73.6510587 C22.5744965,75.3063567 21.0514874,75.6279274 21.0514874,75.6279274 L24.4832444,85.2750467 L31.1321732,85.2750467 L30.4041273,81.1898475 L26.7352646,82.7664003 L27.6466894,81.5585335 L26.0120444,77.7313157 C26.0120444,77.7313157 30.9072929,77.5036463 34.767899,73.9169475 C35.3260783,75.6822913 36.0663495,78.0011582 36.4939116,79.2521867 C37.2447995,81.4484878 38.6388,85.2750467 38.6388,85.2750467 L44.4297091,85.2750467 L44.4297091,81.9977278 L41.2125374,82.876446 L42.105946,81.7779659 C42.105946,81.7779659 40.723849,80.5058509 40.569103,77.7145123 C40.5343576,77.0901513 40.6035268,76.3026986 40.7180581,75.5020667 C42.1619247,75.7257824 43.6389283,75.8473598 45.1439212,75.8473598 C49.8483914,75.8473598 54.2938793,74.7132961 58.2362015,72.7001848 C58.2648343,73.2939044 58.2764162,73.872468 58.2635475,74.4197311 C58.1564157,79.0324248 57.1375374,81.1740325 57.1375374,81.1740325 L59.9792652,82.3272059 L54.7249803,81.5585335 L54.7249803,85.2750467 L61.9095682,85.2750467 C61.9095682,85.2750467 62.7675879,81.2290554 62.8570253,79.142141 C62.9184732,77.7141828 63.3560086,72.8425194 63.626251,69.9078578 L66.3067985,69.6001252 L68.0077172,68.3177964 C68.2560828,70.3674797 68.607398,72.5370931 69.0947995,74.1363799 C70.5692293,78.9774019 75.5291429,85.2750467 75.5291429,85.2750467 L81.1595152,85.2750467 L81.4812323,81.3387716 L77.8882949,81.9977278 Z" id="Fill-1" fill="#424242"></path>
                <polygon id="Fill-4" fill="#FFFFFF" points="59 24.1456293 61.008802 26.2071739 63.2910636 26.5992529 61.6670354 24 59.8152313 24.2856575"></polygon>
            </g>
        </g>
    </g>
</svg>