<?xml version="1.0" encoding="UTF-8" standalone="no"?>
<svg width="47px" height="52px" viewBox="0 0 47 52" version="1.1" xmlns="http://www.w3.org/2000/svg" xmlns:xlink="http://www.w3.org/1999/xlink">
    <!-- Generator: Sketch 46.2 (44496) - http://www.bohemiancoding.com/sketch -->
    <title>Page 1</title>
    <desc>Created with Sketch.</desc>
    <defs></defs>
    <g id="Page-1" stroke="none" stroke-width="1" fill="none" fill-rule="evenodd">
        <g id="1.ArtWolf---Large-Desktop" transform="translate(-1106.000000, -1869.000000)" fill="#FEFEFE">
            <g id="Page-1" transform="translate(1106.000000, 1869.000000)">
                <polygon id="Fill-1" points="23.3073 51.8899063 30.8457786 43.5447188 36.705112 51.757875 42.4744624 47.5487188 36.6147274 39.3355625 46.8233684 34.73275 16.0018128 16.5888125"></polygon>
                <g id="Group-12" transform="translate(0.000000, 0.296156)">
                    <path d="M10.0488812,16.2926969 L10.0488812,16.2926969 C10.0488812,17.0848844 9.40775299,17.7332594 8.62441966,17.7332594 L1.42458205,17.7332594 C0.641248718,17.7332594 0.000120512821,17.0848844 0.000120512821,16.2926969 L0.000120512821,16.2926969 C0.000120512821,15.5005094 0.641248718,14.8521344 1.42458205,14.8521344 L8.62441966,14.8521344 C9.40775299,14.8521344 10.0488812,15.5005094 10.0488812,16.2926969" id="Fill-2"></path>
                    <path d="M11.7923803,20.5494656 L11.7923803,20.5494656 C12.3463376,21.1096844 12.3463376,22.0265906 11.7923803,22.5868094 L6.70151709,27.7352156 C6.14715812,28.2958406 5.24090171,28.2958406 4.68694444,27.7352156 L4.68694444,27.7352156 C4.13258547,27.1749969 4.13258547,26.2584969 4.68694444,25.6978719 L9.77780769,20.5494656 C10.331765,19.9892469 11.2384231,19.9892469 11.7923803,20.5494656" id="Fill-4"></path>
                    <path d="M20.2107231,12.0359281 L20.2107231,12.0359281 C19.6567658,11.4757094 19.6567658,10.5588031 20.2107231,9.99858437 L25.3015863,4.85017812 C25.8555436,4.28955312 26.7622017,4.28955312 27.316159,4.85017812 L27.316159,4.85017812 C27.8705179,5.41039687 27.8705179,6.32689687 27.316159,6.88752187 L22.2252957,12.0359281 C21.6713385,12.5961469 20.7646803,12.5961469 20.2107231,12.0359281" id="Fill-6"></path>
                    <path d="M16.0015316,10.2727219 L16.0015316,10.2727219 C15.2181983,10.2727219 14.5770701,9.62434687 14.5770701,8.83215937 L14.5770701,1.55094063 C14.5770701,0.758753125 15.2181983,0.110378125 16.0015316,0.110378125 L16.0015316,0.110378125 C16.784865,0.110378125 17.4259932,0.758753125 17.4259932,1.55094063 L17.4259932,8.83215937 C17.4259932,9.62434687 16.784865,10.2727219 16.0015316,10.2727219" id="Fill-8"></path>
                    <path d="M11.7923803,12.0359281 L11.7923803,12.0359281 C11.2384231,12.5961469 10.331765,12.5961469 9.77780769,12.0359281 L4.68694444,6.88752187 C4.13258547,6.32689687 4.13258547,5.41039687 4.68694444,4.85017812 L4.68694444,4.85017812 C5.24090171,4.28955312 6.14715812,4.28955312 6.70151709,4.85017812 L11.7923803,9.99858437 C12.3463376,10.5588031 12.3463376,11.4757094 11.7923803,12.0359281" id="Fill-10"></path>
                </g>
            </g>
        </g>
    </g>
</svg>