<?xml version="1.0" encoding="UTF-8" standalone="no"?>
<svg width="100px" height="101px" viewBox="0 0 100 101" version="1.1" xmlns="http://www.w3.org/2000/svg" xmlns:xlink="http://www.w3.org/1999/xlink">
    <!-- Generator: Sketch 46.2 (44496) - http://www.bohemiancoding.com/sketch -->
    <title>ic_prototype</title>
    <desc>Created with Sketch.</desc>
    <defs></defs>
    <g id="Page-1" stroke="none" stroke-width="1" fill="none" fill-rule="evenodd">
        <g id="1.ArtWolf---Large-Desktop" transform="translate(-428.000000, -978.000000)">
            <g id="ic_prototype" transform="translate(428.000000, 978.500000)">
                <rect id="Rectangle" fill="#FFFFFF" x="0" y="0" width="100" height="100"></rect>
                <path d="M60.0812842,38 L42.9184273,38 C41.8631481,38 41,37.1758884 41,36.1686714 L41,20.8313286 C41,19.8241116 41.8631481,19 42.9184273,19 L60.0812842,19 C61.1365635,19 62,19.8241116 62,20.8313286 L62,36.1686714 C62,37.1758884 61.1365635,38 60.0812842,38 Z" id="Fill-1" fill="#434242"></path>
                <path d="M60.0812842,83 L42.9184273,83 C41.8631481,83 41,82.1758884 41,81.1686714 L41,65.8313286 C41,64.8241116 41.8631481,64 42.9184273,64 L60.0812842,64 C61.1365635,64 62,64.8241116 62,65.8313286 L62,81.1686714 C62,82.1758884 61.1365635,83 60.0812842,83" id="Fill-3" fill="#434242"></path>
                <path d="M86.0812842,83 L68.9184273,83 C67.8631481,83 67,82.1758884 67,81.1686714 L67,65.8313286 C67,64.8241116 67.8631481,64 68.9184273,64 L86.0812842,64 C87.1365635,64 88,64.8241116 88,65.8313286 L88,81.1686714 C88,82.1758884 87.1365635,83 86.0812842,83" id="Fill-5" fill="#434242"></path>
                <path d="M50.2298156,54.4680528 L47.6031093,51.9740172 C46.8276083,51.2376745 46.7957464,50.0008878 47.5320777,49.2253749 L50.0216902,46.6030128 C50.7580215,45.8277922 51.9947892,45.7956375 52.7702902,46.5319802 L55.3969965,49.0260157 C56.1722051,49.7623584 56.2043594,50.9991451 55.468028,51.7746581 L52.9781233,54.3967278 C52.2420843,55.1722407 51.0053166,55.2043954 50.2298156,54.4680528" id="Fill-8" fill="#434242"></path>
                <path d="M33.0812842,83 L15.9184273,83 C14.8631481,83 14,82.1758884 14,81.1686714 L14,65.8313286 C14,64.8241116 14.8631481,64 15.9184273,64 L33.0812842,64 C34.1365635,64 35,64.8241116 35,65.8313286 L35,81.1686714 C35,82.1758884 34.1365635,83 33.0812842,83" id="Fill-10" fill="#434242"></path>
                <polygon id="Fill-12" fill="#434242" points="23 62 25 62 25 50 23 50"></polygon>
                <polygon id="Fill-14" fill="#434242" points="77 62 79 62 79 50 77 50"></polygon>
                <polygon id="Fill-15" fill="#434242" points="50 62 52 62 52 40 50 40"></polygon>
                <polygon id="Fill-16" fill="#434242" points="23 52 79 52 79 50 23 50"></polygon>
            </g>
        </g>
    </g>
</svg>