<?xml version="1.0" encoding="UTF-8" standalone="no"?>
<svg width="100px" height="101px" viewBox="0 0 100 101" version="1.1" xmlns="http://www.w3.org/2000/svg" xmlns:xlink="http://www.w3.org/1999/xlink">
    <!-- Generator: Sketch 46.2 (44496) - http://www.bohemiancoding.com/sketch -->
    <title>ic_pre-ico</title>
    <desc>Created with Sketch.</desc>
    <defs></defs>
    <g id="Page-1" stroke="none" stroke-width="1" fill="none" fill-rule="evenodd">
        <g id="1.ArtWolf---Large-Desktop" transform="translate(-1401.000000, -1314.000000)">
            <g id="ic_pre-ico" transform="translate(1401.000000, 1314.500000)">
                <rect id="Rectangle" fill="#FFFFFF" fill-rule="evenodd" x="0" y="0" width="100" height="100"></rect>
                <path d="M82.3605128,33.4331393 C84.5312189,24.7049928 84.0666872,16.4420025 84.0666872,16.4420025 C84.0666872,16.4420025 75.8522828,15.9750411 67.1751414,18.1585068 L82.3605128,33.4331393 Z" id="Fill-1" fill="#434242" fill-rule="evenodd"></path>
                <path d="M65.4123138,18.6392183 C60.7810552,19.9988824 56.1671456,22.1676052 52.738046,25.6168613 C42.9230561,35.4898455 33.5504632,56.0863938 33.5504632,56.0863938 L39.1024099,61.6706745 L44.6543566,67.2552561 C44.6543566,67.2552561 65.1302447,57.8275701 74.9455337,47.9548868 C78.3746332,44.5056306 80.5306826,39.8645999 81.8824011,35.2061183 L65.4123138,18.6392183 Z" id="Fill-3" fill="#434242" fill-rule="evenodd"></path>
                <path d="M65.4386064,47.0325778 C62.1847905,50.3055199 56.9089306,50.3055199 53.6551148,47.0325778 C50.4009998,43.7596357 50.4009998,38.4527638 53.6551148,35.1798217 C56.9089306,31.9065787 62.1847905,31.9065787 65.4386064,35.1798217 C68.6924222,38.4527638 68.6924222,43.7596357 65.4386064,47.0325778" id="Fill-5" fill="#FEFEFE" fill-rule="evenodd"></path>
                <path d="M66.8486531,48.4509129 C62.8159315,52.5073392 56.2777896,52.5073392 52.2450681,48.4509129 C48.2123465,44.3944866 48.2123465,37.8179129 52.2450681,33.7614866 C56.2777896,29.7050603 62.8159315,29.7050603 66.8486531,33.7614866 C70.8813747,37.8179129 70.8813747,44.3944866 66.8486531,48.4509129 Z" id="Stroke-7" stroke="#FEFEFE" stroke-width="0.5985"></path>
                <path d="M41.2782609,38.5395969 C41.2782609,38.5395969 31.4836111,36.4325539 26.1948891,41.173175 C21.4155666,45.4576662 16.9942895,54.6828618 16.9942895,54.6828618 L32.0764648,54.6034303 L41.2782609,38.5395969 Z" id="Fill-9" fill="#434242" fill-rule="evenodd"></path>
                <path d="M62.0983751,59.4821239 C62.0983751,59.4821239 64.193105,69.3343475 59.480187,74.6541572 C55.2207332,79.461573 46.0494473,83.9088388 46.0494473,83.9088388 L46.1284147,68.7380089 L62.0983751,59.4821239 Z" id="Fill-11" fill="#434242" fill-rule="evenodd"></path>
                <path d="M58.9048616,40.4582005 L59.8769981,41.4360514 C60.3633656,41.9252777 60.9074629,42.681683 60.2491021,43.3439137 C59.5907413,44.0061444 58.8587973,43.4793084 58.3523889,42.9699233 L57.3802523,41.9917716 L58.9048616,40.4582005 Z M61.1273153,38.222683 L62.0321501,39.1328365 C62.4781365,39.5811435 62.9767678,40.2743646 62.3731457,40.8815347 C61.7698228,41.488404 61.0985999,41.0054961 60.6346664,40.5385347 L59.7298316,39.6283812 L61.1273153,38.222683 Z M54.1593396,40.9119233 L55.4760611,42.2363847 L54.4632444,43.2551549 C54.4183766,43.3002865 54.4183766,43.3730988 54.4632444,43.4182304 L55.1317752,44.09039 C55.176344,44.1355216 55.2490299,44.1355216 55.2938977,44.09039 L56.3064153,43.0719207 L57.0763475,43.8460777 C57.0829281,43.8529979 57.0892096,43.8596172 57.0957902,43.8668382 L56.0835717,44.8850067 C56.039003,44.9301382 56.039003,45.0032514 56.0835717,45.0480821 L56.7521026,45.7205426 C56.7966713,45.7653733 56.8693572,45.7653733 56.9139259,45.7202418 L57.9524669,44.6755961 C61.1937197,47.2854049 63.2088841,43.7780795 61.5945391,42.2330751 C62.5885114,43.0752304 65.4618479,41.4438742 63.6318382,38.9631418 L64.6718748,37.9166909 C64.7167426,37.8715593 64.7167426,37.798747 64.6721739,37.7539163 L64.0036431,37.0814558 C63.9587752,37.0363242 63.8863885,37.0363242 63.8415206,37.0814558 L62.8299004,38.0993233 C62.8224224,38.092704 62.8158418,38.0863856 62.8086629,38.0797663 L62.0387307,37.3056093 L63.0515475,36.2868391 C63.0964153,36.2420084 63.0964153,36.1688953 63.0518466,36.1240646 L62.3833158,35.451604 C62.3384479,35.4064725 62.2660611,35.4064725 62.2211933,35.451604 L61.2083766,36.4703742 L59.891655,35.1459128 C59.8470863,35.1010821 59.7744004,35.1007812 59.7298316,35.1459128 L58.9802396,35.8999111 C58.9353717,35.9447418 58.9356708,36.0178549 58.9802396,36.0629865 L59.9323352,37.0203777 L56.184973,40.7897672 L55.2328774,39.8320751 C55.1883087,39.7872444 55.1156228,39.7872444 55.070755,39.8320751 L54.1593396,40.7491488 C54.1147708,40.7939795 54.1147708,40.8670926 54.1593396,40.9119233 L54.1593396,40.9119233 Z" id="Fill-13" fill="#434242" fill-rule="evenodd"></path>
                <polygon id="Fill-15" fill="#434242" fill-rule="evenodd" points="40.2385833 64.65324 36.2199203 60.6109549 33.5407119 57.9159979 31.3837652 61.4937286 34.38333 64.5109251 36.3614035 66.500626 39.3609683 69.5178225 42.9177916 67.348197"></polygon>
                <path d="M34.3756725,77.0268747 C38.3243417,73.0549949 37.5941923,71.1672914 37.5941923,71.1672914 L29.661558,63.1877274 C29.661558,63.1877274 27.7845866,62.4532861 23.8359174,66.425166 C22.5141108,67.7550432 20.4038267,71.5253353 20.4038267,71.5253353 C20.4038267,71.5253353 23.5702998,67.427087 24.7114386,68.5749335 C26.0036324,69.874723 18.734743,76.7262984 18.734743,76.7262984 C18.734743,76.7262984 23.5394906,72.27813 24.7440426,73.4894616 C25.5361095,74.2864853 18.6303505,82.1068853 16.7237663,84.1808318 L16.7234672,84.1811326 C16.7234672,84.1811326 16.7234672,84.1811326 16.7234672,84.1811326 L16.7234672,84.1811326 L16.7237663,84.1811326 C18.7855932,82.2630405 26.5602928,75.3166888 27.3526589,76.1134116 C28.5569117,77.325044 24.1347373,82.1580344 24.1347373,82.1580344 C24.1347373,82.1580344 30.9462738,74.8464177 32.2387668,76.1462072 C33.3799056,77.2943546 29.3053073,80.4791396 29.3053073,80.4791396 C29.3053073,80.4791396 33.0535668,78.3567519 34.3756725,77.0268747" id="Fill-19" fill="#434242" fill-rule="evenodd"></path>
                <polygon id="Fill-24" fill="#434242" fill-rule="evenodd" points="39.0583796 69.7061114 31.3186769 61.920914 30.6324981 62.6111263 38.3722007 70.3963237"></polygon>
            </g>
        </g>
    </g>
</svg>