<?xml version="1.0" encoding="UTF-8" standalone="no"?>
<svg width="38px" height="38px" viewBox="0 0 38 38" version="1.1" xmlns="http://www.w3.org/2000/svg" xmlns:xlink="http://www.w3.org/1999/xlink">
    <!-- Generator: Sketch 46.2 (44496) - http://www.bohemiancoding.com/sketch -->
    <title>Page 1</title>
    <desc>Created with Sketch.</desc>
    <defs>
        <polygon id="path-1" points="37.954591 0.324688889 0 0.324688889 0 37.5777778 37.954591 37.5777778"></polygon>
    </defs>
    <g id="Page-1" stroke="none" stroke-width="1" fill="none" fill-rule="evenodd">
        <g id="1.ArtWolf---Large-Desktop" transform="translate(-1483.000000, -6278.000000)">
            <g id="Page-1" transform="translate(1483.000000, 6278.000000)">
                <g id="Group-3" transform="translate(0.000000, 0.097533)">
                    <mask id="mask-2" fill="white">
                        <use xlink:href="#path-1"></use>
                    </mask>
                    <g id="Clip-2"></g>
                    <path d="M22.1857236,30.6844933 C22.1857236,30.6891378 22.1857236,30.6942044 22.1857236,30.6988489 C25.8098135,30.6988489 29.4347573,30.7406489 33.0579933,30.6832267 C35.2611393,30.6481822 35.9724652,29.9063378 35.9989371,27.7099378 C36.0399258,24.2667156 36.0113191,20.8230711 36.0104652,17.3798489 C36.0091843,10.7767156 36.0083303,10.7995156 29.2622629,10.5905156 C28.4920157,10.5664489 27.2273416,10.29876 27.0544202,9.83178222 C25.9361955,6.81036 23.4777236,7.11436 21.0376112,7.11224889 C19.3297461,7.11056 18.0825775,7.55811556 17.2132742,9.19296 C16.8503528,9.87569333 15.7641506,10.3426711 14.9144876,10.56856 C13.9807124,10.8164044 12.9312292,10.5964267 11.9487798,10.7163378 C9.53556629,11.0106267 8.53646517,12.0167822 8.4954764,14.4492044 C8.42033034,18.8749378 8.45491461,23.3027822 8.48224045,27.7297822 C8.49376854,29.6800267 9.47963371,30.7068711 11.5269371,30.6916711 C15.0797236,30.6654933 18.6329371,30.6844933 22.1857236,30.6844933 M37.8515438,20.7208933 C37.8485551,22.97176 37.8827124,25.2230489 37.8400157,27.4726489 C37.7810944,30.5979378 36.3686899,32.0630489 33.2723303,32.5304489 C32.4090045,32.6609156 31.5008472,33.0316267 30.7882404,33.5344933 C18.6760607,42.0823822 3.72455506,36.5086267 0.374150562,22.1682711 C-1.58348989,13.7880044 4.35945393,4.00173778 13.0815213,1.24336 C20.9936337,-1.25872889 28.6038809,1.51062667 34.1535888,7.59569333 C37.3793191,11.1330711 38.2708247,14.6962044 37.861791,19.0336933 C37.8092742,19.5914489 37.8545326,20.1580711 37.8515438,20.7208933" id="Fill-1" fill="#FEFEFE" mask="url(#mask-2)"></path>
                </g>
                <path d="M28.7179236,21.2919911 C28.7606202,17.5587022 25.8337663,14.5415022 22.0978112,14.4676133 C18.225227,14.3911911 15.2146876,17.3256356 15.1894966,21.2012133 C15.1647326,25.00628 18.0019236,27.8254578 21.8903056,27.8588133 C25.7026876,27.8913244 28.675227,25.0324578 28.7179236,21.2919911 M21.8868899,29.6579022 C17.136036,29.6380578 13.3543955,25.8891467 13.3458562,21.1902356 C13.3377438,16.5251022 17.2133169,12.6588133 21.8796315,12.6769689 C26.5873618,12.6951244 30.511609,16.5035689 30.5534517,21.0948133 C30.5974292,25.8975911 26.7713843,29.6777467 21.8868899,29.6579022" id="Fill-4" fill="#FEFEFE"></path>
                <path d="M17.6188067,21.0938422 C17.3993461,24.29682 19.2557955,25.9717756 22.7850989,25.3667311 C19.7532112,25.0813089 18.2362,23.6275978 17.6188067,21.0938422 M27.5765146,21.1901089 C27.584627,24.3187756 25.0877281,26.7490867 21.884627,26.7305089 C18.7839978,26.7119311 16.3396157,24.3305978 16.3144247,21.3036867 C16.2888067,18.1775533 18.767773,15.6488644 21.8948742,15.6117089 C25.0288067,15.5745533 27.5679753,18.0677756 27.5765146,21.1901089" id="Fill-6" fill="#FEFEFE"></path>
                <path d="M34.0270787,15.7042178 C34.0270787,16.5372622 33.3443596,17.2128178 32.5015281,17.2128178 C31.6591236,17.2128178 30.9764045,16.5372622 30.9764045,15.7042178 C30.9764045,14.8711733 31.6591236,14.1956178 32.5015281,14.1956178 C33.3443596,14.1956178 34.0270787,14.8711733 34.0270787,15.7042178" id="Fill-8" fill="#FEFEFE"></path>
            </g>
        </g>
    </g>
</svg>