<?xml version="1.0" encoding="UTF-8" standalone="no"?>
<svg width="37px" height="37px" viewBox="0 0 37 37" version="1.1" xmlns="http://www.w3.org/2000/svg" xmlns:xlink="http://www.w3.org/1999/xlink">
    <!-- Generator: Sketch 46.2 (44496) - http://www.bohemiancoding.com/sketch -->
    <title>Fill 1</title>
    <desc>Created with Sketch.</desc>
    <defs></defs>
    <g id="Page-1" stroke="none" stroke-width="1" fill="none" fill-rule="evenodd">
        <g id="1.ArtWolf---Large-Desktop" transform="translate(-1326.000000, -6279.000000)" fill="#FEFEFE">
            <path d="M1349.91764,6299.01764 C1351.95982,6304.64782 1352.793,6309.23209 1352.95609,6310.161 C1356.44836,6307.80682 1358.91955,6304.05573 1359.63218,6299.70545 C1359.29891,6299.61327 1354.95218,6298.23409 1349.91764,6299.01764 M1356.28173,6287.33536 C1356.23564,6287.38145 1353.74318,6290.99073 1347.58827,6293.508 C1347.94636,6294.24545 1348.30091,6295.00418 1348.63418,6295.76645 C1348.75473,6296.02527 1348.84691,6296.30891 1348.96745,6296.57482 C1354.33527,6295.88345 1359.63218,6297.04636 1359.82009,6297.07118 C1359.774,6293.391 1358.46927,6289.99445 1356.28173,6287.33536 M1344.24136,6281.65909 C1342.98273,6281.65909 1341.74891,6281.82218 1340.56118,6282.10936 C1340.79873,6282.41782 1343.74145,6286.28945 1346.40055,6291.18218 C1352.26827,6288.99818 1354.47709,6285.62645 1354.52318,6285.552 C1351.79318,6283.134 1348.18391,6281.65909 1344.24136,6281.65909 M1340.46545,6282.13064 C1340.46545,6282.13064 1340.48673,6282.10936 1340.51155,6282.10936 C1340.48673,6282.10936 1340.48673,6282.10936 1340.46545,6282.13064 M1346.99618,6299.75509 C1346.97136,6299.75509 1346.92527,6299.77991 1346.90045,6299.77991 C1346.90045,6299.77991 1337.661,6303.00982 1334.66864,6309.51573 C1334.52682,6309.39873 1334.31409,6309.25691 1334.31409,6309.25691 C1337.02282,6311.46573 1340.46545,6312.82009 1344.24136,6312.82009 C1346.40055,6312.82009 1348.44273,6312.36627 1350.32182,6311.58273 C1350.08427,6310.20355 1349.18018,6305.45264 1346.99618,6299.75509 M1337.59009,6283.15173 C1333.24336,6285.19745 1330.01345,6289.21091 1328.99591,6294.03273 C1329.39655,6294.03273 1335.906,6294.10364 1343.38691,6292.13236 C1340.67818,6287.33536 1337.80282,6283.43891 1337.59009,6283.15173 M1344.67036,6294.52909 C1336.63991,6296.92936 1328.94627,6296.73791 1328.68391,6296.73791 C1328.65909,6296.90455 1328.65909,6297.07118 1328.65909,6297.23782 C1328.65909,6301.22645 1330.18009,6304.88536 1332.65127,6307.64018 C1336.90227,6300.06355 1345.30855,6297.35482 1345.30855,6297.35482 C1345.52482,6297.28745 1345.73755,6297.23782 1345.929,6297.16691 C1345.54964,6296.28764 1345.12064,6295.40836 1344.67036,6294.52909 M1344.24136,6315.47918 C1334.17227,6315.47918 1326,6307.30691 1326,6297.23782 C1326,6287.16873 1334.17227,6279 1344.24136,6279 C1354.31045,6279 1362.47918,6287.16873 1362.47918,6297.23782 C1362.47918,6307.30691 1354.31045,6315.47918 1344.24136,6315.47918" id="Fill-1"></path>
        </g>
    </g>
</svg>