<?xml version="1.0" encoding="UTF-8" standalone="no"?>
<svg width="30px" height="20px" viewBox="0 0 30 20" version="1.1" xmlns="http://www.w3.org/2000/svg" xmlns:xlink="http://www.w3.org/1999/xlink">
    <!-- Generator: Sketch 46.2 (44496) - http://www.bohemiancoding.com/sketch -->
    <title>Fill 4</title>
    <desc>Created with Sketch.</desc>
    <defs></defs>
    <g id="Page-1" stroke="none" stroke-width="1" fill="none" fill-rule="evenodd">
        <g id="1.ArtWolf---Large-Desktop" transform="translate(-1400.000000, -6288.000000)" fill="#FEFEFE">
            <path d="M1420.23932,6299.08669 L1425.90136,6299.08669 C1425.96053,6297.46912 1424.92614,6296.55166 1423.0935,6296.56936 C1421.47801,6296.58484 1420.10423,6297.50949 1420.23932,6299.08669 L1420.23932,6299.08669 Z M1420.1595,6301.71241 C1420.25495,6303.20666 1420.97785,6304.16724 1422.23943,6304.608 C1423.47254,6305.03935 1424.79943,6304.68321 1425.7043,6303.74751 C1425.91699,6303.52685 1426.28206,6303.34878 1426.58573,6303.33496 C1427.66143,6303.28518 1428.74047,6303.3156 1429.91608,6303.3156 C1429.1943,6305.74168 1427.61286,6307.1386 1425.34537,6307.72535 C1419.90216,6309.13333 1415.46207,6304.94202 1416.29605,6299.40191 C1416.89837,6295.39973 1420.98678,6292.25694 1425.63118,6293.88502 C1428.74996,6294.97833 1430.36991,6298.10177 1429.92836,6301.71241 L1420.1595,6301.71241 Z M1427.88527,6289.27685 C1427.88527,6289.95651 1427.88918,6290.57699 1427.88416,6291.19692 C1427.87969,6291.70625 1427.48949,6291.62606 1427.17466,6291.62606 C1424.75198,6291.62993 1422.32874,6291.62717 1419.90606,6291.62606 C1419.40701,6291.62606 1418.90852,6291.62606 1418.3503,6291.62606 L1418.3503,6289.27685 L1427.88527,6289.27685 Z M1404.00972,6295.97293 C1405.61237,6295.97293 1407.17874,6296.06694 1408.72724,6295.94196 C1409.86992,6295.84961 1410.59337,6294.79888 1410.58779,6293.63644 C1410.58277,6292.47732 1409.99496,6291.6312 1408.76799,6291.52171 C1407.20162,6291.38124 1405.61237,6291.48742 1404.00972,6291.48742 L1404.00972,6295.97293 Z M1404.00023,6304.24107 C1405.71731,6304.24107 1407.3836,6304.32347 1409.03761,6304.21508 C1410.33715,6304.12992 1411.06005,6303.24564 1411.10638,6302.03509 C1411.16109,6300.60167 1410.51578,6299.56864 1409.15093,6299.44366 C1407.45841,6299.28937 1405.74076,6299.40661 1404.00023,6299.40661 L1404.00023,6304.24107 Z M1411.93534,6297.40414 C1413.5486,6297.92397 1414.42333,6299.17876 1414.88219,6300.72057 C1415.8306,6303.90373 1413.76463,6306.96302 1410.31929,6307.44525 C1409.17661,6307.60507 1408.001,6307.55695 1406.84046,6307.56691 C1404.84314,6307.58405 1402.84471,6307.55308 1400.8474,6307.58405 C1400.24898,6307.59345 1399.99778,6307.46018 1400.00057,6306.80485 C1400.02123,6300.79246 1400.01955,6294.78008 1400.00002,6288.76824 C1399.99778,6288.15163 1400.23112,6288.00895 1400.80274,6288.01393 C1403.40684,6288.0366 1406.0154,6287.94204 1408.61448,6288.06315 C1409.74041,6288.11568 1410.93445,6288.40933 1411.94483,6288.90096 C1414.64215,6290.21438 1415.331,6294.08272 1413.34485,6296.31801 C1412.97754,6296.73112 1412.45616,6297.00984 1411.93534,6297.40414 L1411.93534,6297.40414 Z" id="Fill-4"></path>
        </g>
    </g>
</svg>