<?xml version="1.0" encoding="utf-8"?>
<!-- Generator: Adobe Illustrator 19.0.0, SVG Export Plug-In . SVG Version: 6.00 Build 0)  -->
<svg version="1.1" id="Layer_1" xmlns="http://www.w3.org/2000/svg" xmlns:xlink="http://www.w3.org/1999/xlink" x="0px" y="0px"
	 viewBox="0 0 455.1 100" style="enable-background:new 0 0 455.1 100;" xml:space="preserve">
<style type="text/css">
	.st0{fill:#666766;}
	.st1{fill:#565656;}
	.st2{fill:#FFFFFF;}
	.st3{fill:#434343;}
</style>
<path id="XMLID_233_" class="st0" d="M32.1,77.4c0,0,0,0.9-5.6,5.9c-5.6,5.1-12.6,5.4-12.6,5.4l2.4,5.4l-1.3,1.7l5.3-2.2l1.1,5.8
	h-9.6l-5-13.6c0,0,2.2-0.5,5-2.8c4.3-3.6,3.1-4.6,7.1-10.2s8.2-9.5,8.2-9.5L32.1,77.4z"/>
<path id="XMLID_232_" class="st1" d="M25.5,80c0,0,2.5,7.7,3.6,10.8s3.1,8.5,3.1,8.5h8.4v-4.6l-4.6,1.2l1.3-1.5c0,0-2-1.8-2.2-5.7
	c-0.2-3,1.4-8.7,1.4-8.7H25.5z"/>
<path id="XMLID_231_" class="st0" d="M68.5,74.4c0,0-1.3,13.3-1.4,16.2c-0.1,2.9-1.4,8.6-1.4,8.6H55.3v-5.2l7.6,1.1l-4.1-1.6
	c0,0,1.5-3,1.6-9.5c0.2-6.5-2.2-19.3-2.2-19.3s2.9,5.5,5.1,7.7C65.6,74.5,68.5,74.4,68.5,74.4z"/>
<path id="XMLID_230_" class="st0" d="M73.9,67c0,0,1.2,11,3,16.8C79,90.6,83,99.3,83,99.3l9.7,0.2v-5.5l-7.7,0.7l3.9-1.2
	c0,0-3-4.3-5.6-12.2c-2.1-6.4,0.3-32.4,0.3-32.4L73.9,67z"/>
<polygon id="XMLID_228_" class="st0" points="46.5,0.3 61.1,10.8 66,10.5 74.4,18.1 80,19.3 85.3,22.7 75.5,24 70.7,32.2 60.1,32.4 
	55.6,24.4 46.1,16.1 45.9,13.7 48.3,12.9 45.1,8.8 44.8,4 "/>
<polygon id="XMLID_227_" class="st2" points="61.7,12.4 64.6,15.3 67.9,15.8 66,12.8 62.9,12.6 "/>
<path id="XMLID_226_" class="st0" d="M58.7,29.3c1.4,3,2.2,6.4,2.2,10C60.9,52.4,50.2,63,37.1,63c-2.6,0-5.1-0.4-7.4-1.2L15.9,77.4
	h0c7.1,5.4,16,8.6,25.6,8.6c23.4,0,42.4-19,42.4-42.4c0-7.5-1.9-14.5-5.3-20.6L58.7,29.3z"/>
<polygon id="XMLID_225_" class="st0" points="66.5,77.8 72,77.2 78.3,72.6 78.3,60.6 64.8,65.5 "/>
<path id="XMLID_224_" class="st0" d="M78.3,23.2c1.6,0.6,3,1.8,3.9,3.2c-1-0.5-2.2-0.7-3.3-0.5c-0.3-0.9-0.4-1.9-0.6-2.8"/>
<path id="XMLID_223_" class="st0" d="M79.4,25.7c1.9,1,3.5,2.7,4.5,5c-1.2-0.8-2.6-1-3.9-0.8c-0.3-1.5-0.4-3-0.7-4.5"/>
<path id="XMLID_222_" class="st0" d="M80.6,28.7c1.6,1.4,2.8,3.5,3.3,5.9c-1-1-2.3-1.6-3.6-1.6c0.1-1.5,0.3-3,0.3-4.5"/>
<path id="XMLID_220_" class="st0" d="M82.7,33.6C82.7,33.6,82.7,33.6,82.7,33.6c-0.4,0.2-0.7,0.5-1.1,0.9c0,0.2,0,0.4,0,0.5
	c0.9,0,1.7,0.6,1.9,1.4C83.7,35.4,83.4,34.4,82.7,33.6L82.7,33.6z"/>
<path id="XMLID_219_" class="st0" d="M83.1,35.4C83,35.4,83,35.4,83.1,35.4c-0.5,0.1-0.8,0.3-1.3,0.6c0,0.2,0,0.3-0.1,0.5
	c0.9,0.2,1.6,0.9,1.8,1.8C83.7,37.4,83.6,36.3,83.1,35.4L83.1,35.4z"/>
<path id="XMLID_253_" class="st2" d="M7.7,53.3c-1.6,0.3-3.2,0.3-4.8,0c-0.2,0-0.5-0.1-0.6-0.3c-0.1-0.1,0-0.3,0-0.5
	c0.1-0.5,0.2-1,0.3-1.6c0.8,0.3,1.6,0.7,2.3,1.2c0.4,0.2,0.7,0.5,1.1,0.7c0.5,0.3,1,0.4,1.5,0.5"/>
<g id="XMLID_14_">
	<path id="XMLID_15_" class="st0" d="M9.1,29.5L9.1,29.5C9.1,29.5,9,29.4,9.1,29.5C9,29.4,9,29.4,9.1,29.5C9,29.5,9,29.5,9.1,29.5z"
		/>
	<path id="XMLID_22_" class="st0" d="M13.3,39.2c0-5.6,1.9-10.8,5.2-14.8c-2.5,0.6-4.7,1.6-6.8,2.9c-0.1,0.1-0.2,0.2-0.3,0.2
		c-1.1,1.1-1.7,2.6-1.6,4.1c-0.3-0.7-0.5-1.4-0.8-2.2c-0.8,1-1.5,1.6-1.9,2.9c-0.4,1.2-0.7,2.2-0.5,4c-1.1-0.7-1.4-1.6-1.5-2.4
		c-0.5,0.9-1,1.8-1.4,2.8c-0.2,0.5-0.4,1.1-0.5,1.7c-0.4,1.9-0.1,3.9,0.9,5.6c0,0.1,0.1,0.1,0.1,0.2c0.2,0.1,0.3,0.2,0.5,0.3
		c-0.2,0-0.4-0.2-0.5-0.3c-0.7-0.5-1.3-0.9-1.9-1.4c0,0.3-0.1,0.6-0.1,0.9c0,0.1,0,0.3,0,0.4c0,0.6,0,1.1,0.2,1.6
		c0.2,0.7,0.3,1.5,0.5,2.2c0.3,1.1,0.8,1.9,1.5,2.8c0.5,0.7,1.1,1.2,1.9,1.6c0.5,0.2,1.1,0.4,1.4,0.8c-0.9,0.3-1.9,0.2-2.7-0.2
		c-0.5-0.2-0.9-0.5-1.3-0.8c0.5,1.4,1.2,2.7,2,3.9c1.2,1.3,2.8,2.2,4.4,3c1.2,0.6,2.6,1.1,3.9,0.9c0.1,0.4-0.4,0.6-0.7,0.7
		c-1.5,0.7-0.9,0.3-2.5,0.4c3,2.2,4.9,2.7,8.6,3.1c0.1,0-0.3,0.5-0.6,0.9c1.3,0.3,2.7,0.4,4.1,0.5c3.7,0,7.2-1,10.2-2.6
		c0.1-0.1,0.2-0.1,0.3-0.2C22.1,61,13.3,51.1,13.3,39.2z"/>
</g>
<path id="XMLID_255_" class="st1" d="M58.3,66.6c0.3,0.9,0.2,2-0.4,2.7c0.5,0.2,1-0.2,1.1-0.6c0.1,1.3-0.2,2.6-0.8,3.7
	c0.4-0.1,0.7-0.2,1.1-0.3c0.3,1.2,0,2.6-0.7,3.6c0.4,0,0.8-0.1,1.2-0.3c-0.1,1.4-0.4,2.9-1.1,4.1c0.4-0.1,0.9-0.3,1.3-0.4
	c0.1,1-0.4,2.4-1.2,3c0.3,0.3,1.3-0.5,1.6-0.6c0.5-1.6,0.4-2.7,0.4-4.4c0-1.1-0.2-2.1-0.4-3.2c-0.1-0.8-0.3-1.6-0.4-2.4
	c-0.3-1.6-0.6-3.3-1.6-4.7"/>
<path id="XMLID_256_" class="st1" d="M26.6,83.1c2.5-2.1,4.4-4.8,5.5-7.9c0,1.2-0.1,2.4-0.1,3.6c-0.2-0.3-0.4-0.5-0.5-0.8
	c0,1.2-0.2,2.4-0.6,3.6c0.3-0.6,0.2-1.4-0.3-2c-0.2,1.5-0.5,3.2-1.5,4.4c0.2-0.8,0.2-1.5,0-2.3c-0.3,0.5-0.5,1-1,1.4
	c-0.8,0.5-0.7,0.4-1.6,0.2"/>
<path id="XMLID_257_" class="st1" d="M75.1,74.9c0.3-0.2,0.6-0.5,0.8-0.8c0.2-0.2,0.3-0.5,0.4-0.7c0.5-1,1-1.9,1.5-2.9
	c-0.3,2.1-1.2,4.2-2.4,5.9c-0.1-0.4-0.3-0.8-0.5-1.2"/>
<g id="XMLID_31_">
	<path id="XMLID_47_" class="st3" d="M149.2,56.5v-0.1c0-0.1,0.1-0.3,0.1-0.5c0-0.2,0-0.4,0-0.6c0-0.7-0.1-1.4-0.3-2.2
		c-0.2-0.8-0.5-1.8-1-3l-3.8-8.6c-1.2,0-2.8-0.1-4.7-0.1c-2,0-4.1,0-6.4,0c-1.7,0-3.3,0-4.8,0s-2.9,0-4.2,0.1l-3.6,8.3
		c-0.3,0.8-0.7,1.6-1,2.6c-0.4,0.9-0.5,1.9-0.5,2.8c0,0.3,0,0.5,0.1,0.7c0,0.2,0.1,0.3,0.1,0.4v0.1h-6.4v-0.1
		c0.4-0.4,0.9-1.1,1.4-2.1c0.6-1,1.2-2.3,1.9-3.8l18.1-40.2h2.5l17.2,38.6c0.4,0.9,0.8,1.8,1.2,2.6c0.4,0.9,0.8,1.6,1.2,2.3
		c0.4,0.7,0.7,1.2,1,1.7c0.3,0.5,0.5,0.8,0.6,0.9v0.1H149.2z M128.7,38.8c1.2,0,2.5,0,3.8,0c1.3,0,2.5,0,3.8,0c1.2,0,2.4,0,3.6,0
		c1.1,0,2.2,0,3.1,0L134,18.6l-8.7,20.2H128.7z"/>
	<path id="XMLID_105_" class="st3" d="M162.1,36.4c0-1.8,0-3.4-0.1-4.7c-0.1-1.3-0.1-2.5-0.2-3.5c-0.1-1-0.2-1.8-0.3-2.4
		c-0.1-0.7-0.2-1.2-0.4-1.6v-0.1h7.3v0.1c-0.2,0.5-0.3,1.1-0.4,1.8c-0.1,0.7-0.2,1.6-0.3,2.7c0.8-0.7,1.6-1.3,2.4-1.9
		c0.8-0.6,1.7-1.2,2.6-1.7c0.9-0.5,1.8-0.9,2.7-1.2c0.9-0.3,1.8-0.4,2.8-0.4c0.6,0,1.1,0,1.5,0.1c0.4,0.1,0.8,0.1,1.1,0.2
		c0.3,0.1,0.6,0.2,0.9,0.3c0.3,0.1,0.5,0.2,0.8,0.3l-1.5,6l-0.5-0.1c-0.3-0.9-0.7-1.7-1.4-2.2c-0.7-0.6-1.6-0.8-2.8-0.8
		c-0.7,0-1.3,0.1-2.1,0.3c-0.7,0.2-1.4,0.6-2.2,1c-0.7,0.4-1.5,0.9-2.2,1.4c-0.7,0.5-1.5,1.1-2.1,1.7c0,0.6-0.1,1.3-0.1,2
		c0,0.7,0,1.5,0,2.3v8.2c0,1.8,0,3.4,0.1,4.7c0,1.3,0.1,2.5,0.2,3.5c0.1,1,0.2,1.8,0.3,2.4s0.2,1.2,0.3,1.6v0.1h-7.3v-0.1
		c0.1-0.4,0.2-1,0.4-1.6c0.1-0.7,0.2-1.5,0.3-2.4c0.1-1,0.1-2.1,0.2-3.5c0.1-1.3,0.1-2.9,0.1-4.7V36.4z"/>
	<path id="XMLID_107_" class="st3" d="M198.9,54.6c0.6,0,1.3-0.1,1.9-0.3c0.6-0.2,1.2-0.5,1.8-0.9c0.6-0.4,1.1-0.9,1.7-1.4
		c0.5-0.5,1-1.1,1.5-1.6l0.3,0.2l-2.1,5.1c-0.3,0.1-0.6,0.3-0.9,0.5c-0.4,0.2-0.8,0.3-1.3,0.5c-0.5,0.2-1.1,0.3-1.8,0.4
		s-1.5,0.2-2.5,0.2c-2.8,0-5-0.8-6.6-2.3c-1.6-1.5-2.4-3.9-2.4-7.2V26.6l-5.3,0.2V24c0.7,0,1.4,0.1,2.3,0.1c0.9,0,1.9,0,3,0
		c0-1.5-0.1-2.8-0.1-4c-0.1-1.1-0.1-2.1-0.2-3c-0.1-0.9-0.2-1.6-0.3-2.2s-0.2-1.1-0.3-1.5v-0.1h7.3v0.1c-0.1,0.4-0.2,0.9-0.3,1.5
		s-0.2,1.3-0.3,2.1c-0.1,0.8-0.1,1.8-0.2,3c-0.1,1.1-0.1,2.5-0.1,4c1.3,0,2.6,0,3.9-0.1c1.3,0,2.4-0.1,3.5-0.1
		c1-0.1,1.9-0.1,2.7-0.2c0.7-0.1,1.2-0.1,1.4-0.1l-0.6,3.2c-1.1,0-2.2-0.1-3.4-0.1c-1,0-2.2-0.1-3.5-0.1c-1.3,0-2.7,0-4-0.1v21.7
		c0,1.3,0.1,2.4,0.4,3.2c0.3,0.8,0.7,1.4,1.1,1.9c0.5,0.5,1,0.8,1.5,0.9C197.7,54.5,198.3,54.6,198.9,54.6z"/>
	<path id="XMLID_109_" class="st3" d="M241.5,17.1l12.6,30.7l12.3-30.1c0.5-1.2,0.8-2.3,1.1-3.2c0.2-0.9,0.3-1.6,0.3-2.2
		c0-0.2,0-0.4,0-0.6c0-0.2-0.1-0.4-0.1-0.5v-0.1h6.3v0.1c-0.4,0.5-0.9,1.2-1.4,2.2c-0.5,1-1.1,2.3-1.7,3.8l-16.9,40.2h-2.4
		l-12.3-29.8l-11.2,29.8h-2.4l-15.5-38.7c-0.4-0.9-0.8-1.8-1.2-2.6c-0.4-0.8-0.8-1.6-1.1-2.3s-0.7-1.2-0.9-1.7
		c-0.3-0.5-0.5-0.8-0.6-0.9v-0.1h8.8v0.1c0,0.2-0.1,0.4-0.1,0.5s0,0.3,0,0.4c0,0.7,0.1,1.5,0.2,2.3c0.2,0.8,0.5,1.8,0.9,2.9l11.9,30
		l11.3-30.2L241.5,17.1z"/>
	<path id="XMLID_111_" class="st3" d="M272.7,40.2c0-2.4,0.4-4.6,1.3-6.6c0.9-2,2.1-3.8,3.7-5.3c1.5-1.5,3.4-2.7,5.5-3.5
		c2.1-0.8,4.4-1.3,6.8-1.3c2.4,0,4.6,0.4,6.7,1.2c2.1,0.8,3.9,1.9,5.5,3.4c1.6,1.5,2.8,3.2,3.7,5.3c0.9,2.1,1.3,4.4,1.3,7
		c0,2.2-0.4,4.3-1.1,6.3s-1.9,3.8-3.4,5.3c-1.5,1.5-3.3,2.8-5.4,3.7c-2.1,0.9-4.6,1.4-7.4,1.4c-2.4,0-4.6-0.4-6.7-1.2
		s-3.9-1.9-5.5-3.4c-1.6-1.5-2.8-3.2-3.7-5.3C273.2,45.1,272.7,42.8,272.7,40.2z M290.6,54.7c1.5,0,2.9-0.3,4.1-0.9s2.3-1.4,3.2-2.6
		c0.9-1.1,1.6-2.5,2.1-4.1c0.5-1.6,0.8-3.4,0.8-5.4c0-2.3-0.2-4.4-0.7-6.3c-0.5-1.9-1.2-3.6-2.2-5.1c-1-1.4-2.2-2.5-3.6-3.3
		s-3.2-1.2-5.1-1.2c-1.5,0-2.9,0.3-4.1,0.9c-1.2,0.6-2.3,1.4-3.2,2.5c-0.9,1.1-1.6,2.4-2.1,4c-0.5,1.6-0.8,3.4-0.8,5.4
		c0,2.3,0.2,4.4,0.7,6.4c0.5,2,1.2,3.7,2.2,5.1c1,1.4,2.2,2.6,3.6,3.4S288.7,54.7,290.6,54.7z"/>
	<path id="XMLID_114_" class="st3" d="M311.6,40.2c0-2.4,0.4-4.6,1.3-6.6c0.9-2,2.1-3.8,3.7-5.3c1.5-1.5,3.4-2.7,5.5-3.5
		c2.1-0.8,4.4-1.3,6.8-1.3c2.4,0,4.6,0.4,6.7,1.2c2.1,0.8,3.9,1.9,5.5,3.4c1.6,1.5,2.8,3.2,3.7,5.3c0.9,2.1,1.3,4.4,1.3,7
		c0,2.2-0.4,4.3-1.1,6.3s-1.9,3.8-3.4,5.3c-1.5,1.5-3.3,2.8-5.4,3.7c-2.1,0.9-4.6,1.4-7.4,1.4c-2.4,0-4.6-0.4-6.7-1.2
		s-3.9-1.9-5.5-3.4c-1.6-1.5-2.8-3.2-3.7-5.3C312.1,45.1,311.6,42.8,311.6,40.2z M329.5,54.7c1.5,0,2.9-0.3,4.1-0.9s2.3-1.4,3.2-2.6
		c0.9-1.1,1.6-2.5,2.1-4.1c0.5-1.6,0.8-3.4,0.8-5.4c0-2.3-0.2-4.4-0.7-6.3c-0.5-1.9-1.2-3.6-2.2-5.1c-1-1.4-2.2-2.5-3.6-3.3
		s-3.2-1.2-5.1-1.2c-1.5,0-2.9,0.3-4.1,0.9c-1.2,0.6-2.3,1.4-3.2,2.5c-0.9,1.1-1.6,2.4-2.1,4c-0.5,1.6-0.8,3.4-0.8,5.4
		c0,2.3,0.2,4.4,0.7,6.4c0.5,2,1.2,3.7,2.2,5.1c1,1.4,2.2,2.6,3.6,3.4S327.6,54.7,329.5,54.7z"/>
	<path id="XMLID_117_" class="st3" d="M350.5,40.2c0-2.4,0.4-4.6,1.3-6.6c0.9-2,2.1-3.8,3.7-5.3c1.5-1.5,3.4-2.7,5.5-3.5
		c2.1-0.8,4.4-1.3,6.8-1.3c2.4,0,4.6,0.4,6.7,1.2c2.1,0.8,3.9,1.9,5.5,3.4c1.6,1.5,2.8,3.2,3.7,5.3c0.9,2.1,1.3,4.4,1.3,7
		c0,2.2-0.4,4.3-1.1,6.3s-1.9,3.8-3.4,5.3c-1.5,1.5-3.3,2.8-5.4,3.7c-2.1,0.9-4.6,1.4-7.4,1.4c-2.4,0-4.6-0.4-6.7-1.2
		s-3.9-1.9-5.5-3.4c-1.6-1.5-2.8-3.2-3.7-5.3C351,45.1,350.5,42.8,350.5,40.2z M368.4,54.7c1.5,0,2.9-0.3,4.1-0.9s2.3-1.4,3.2-2.6
		c0.9-1.1,1.6-2.5,2.1-4.1c0.5-1.6,0.8-3.4,0.8-5.4c0-2.3-0.2-4.4-0.7-6.3c-0.5-1.9-1.2-3.6-2.2-5.1c-1-1.4-2.2-2.5-3.6-3.3
		s-3.2-1.2-5.1-1.2c-1.5,0-2.9,0.3-4.1,0.9c-1.2,0.6-2.3,1.4-3.2,2.5c-0.9,1.1-1.6,2.4-2.1,4c-0.5,1.6-0.8,3.4-0.8,5.4
		c0,2.3,0.2,4.4,0.7,6.4c0.5,2,1.2,3.7,2.2,5.1c1,1.4,2.2,2.6,3.6,3.4S366.5,54.7,368.4,54.7z"/>
	<path id="XMLID_120_" class="st3" d="M392.3,21.6c0-1.8,0-3.4-0.1-4.7c-0.1-1.3-0.1-2.5-0.2-3.5s-0.2-1.8-0.3-2.4
		c-0.1-0.7-0.2-1.2-0.4-1.6V9.2h7.3v0.1c-0.1,0.4-0.2,1-0.3,1.6c-0.1,0.7-0.2,1.5-0.3,2.4c-0.1,1-0.1,2.1-0.2,3.5
		c0,1.3-0.1,2.9-0.1,4.7v22.5c0,1.8,0,3.4,0.1,4.7c0,1.3,0.1,2.5,0.2,3.5c0.1,1,0.2,1.8,0.3,2.4s0.2,1.2,0.3,1.6v0.1h-7.3v-0.1
		c0.1-0.4,0.2-1,0.4-1.6c0.1-0.7,0.2-1.5,0.3-2.4c0.1-1,0.1-2.1,0.2-3.5c0.1-1.3,0.1-2.9,0.1-4.7V21.6z"/>
	<path id="XMLID_122_" class="st3" d="M419.4,11.2c-0.5,0-1.1,0.1-1.7,0.3c-0.6,0.2-1.2,0.5-1.7,1c-0.5,0.5-0.9,1.2-1.3,2.1
		c-0.3,0.9-0.5,2-0.5,3.5v6c1.1,0,2.2-0.1,3.1-0.1c1,0,1.9-0.1,2.6-0.1c0.8,0,1.4-0.1,2-0.1c0.5-0.1,0.9-0.1,1.1-0.1l-0.6,3.2
		c-0.7,0-1.5-0.1-2.4-0.1c-0.7,0-1.6-0.1-2.6-0.1c-1,0-2.1,0-3.3-0.1v17.5c0,1.8,0,3.4,0.1,4.7c0.1,1.3,0.1,2.5,0.2,3.5
		c0.1,1,0.2,1.8,0.3,2.4c0.1,0.7,0.2,1.2,0.4,1.6v0.1h-7.3v-0.1c0.1-0.4,0.2-1,0.3-1.6s0.2-1.5,0.3-2.4c0.1-1,0.1-2.1,0.2-3.5
		c0-1.3,0.1-2.9,0.1-4.7V26.6l-5.3,0.2V24c0.7,0,1.4,0.1,2.3,0.1c0.9,0,1.9,0,3,0v-5.3c0-1.6,0.2-3.1,0.7-4.3c0.5-1.3,1.1-2.3,2-3.2
		c0.8-0.9,1.9-1.5,3-1.9c1.2-0.4,2.5-0.7,3.9-0.7c0.8,0,1.5,0.1,2.2,0.2c0.7,0.1,1.3,0.2,1.8,0.4c0.5,0.1,1,0.3,1.4,0.5
		c0.4,0.2,0.8,0.3,1,0.4l1.2,5.4l-0.4,0.2c-0.3-0.5-0.7-1-1.1-1.6c-0.4-0.5-0.9-1-1.4-1.5c-0.5-0.4-1.1-0.8-1.7-1.1
		C420.9,11.3,420.2,11.2,419.4,11.2z"/>
</g>
<g id="XMLID_46_">
	<path id="XMLID_48_" class="st3" d="M115.6,88.9V75.3h2.7l2.7,6.4c0.2,0.6,0.4,1.1,0.6,1.7c0.2,0.6,0.4,1.1,0.6,1.6h0.1
		c0.2-0.5,0.4-1.1,0.6-1.6s0.4-1.1,0.6-1.7l2.6-6.4h2.6v13.6h-2.1v-6.1c0-0.3,0-0.6,0-1.1c0-0.4,0-0.8,0.1-1.2
		c0-0.4,0.1-0.8,0.1-1.3c0-0.4,0.1-0.8,0.1-1.2h-0.1c-0.2,0.5-0.4,1.1-0.6,1.6c-0.2,0.6-0.4,1.1-0.6,1.6l-2.6,6.3h-1.5l-2.6-6.3
		c-0.2-0.5-0.4-1-0.6-1.6c-0.2-0.6-0.4-1.1-0.6-1.6h-0.1c0,0.4,0,0.7,0.1,1.2c0,0.4,0.1,0.8,0.1,1.3c0,0.4,0.1,0.8,0.1,1.2
		c0,0.4,0,0.8,0,1.1v6.1H115.6z"/>
	<path id="XMLID_50_" class="st3" d="M136.5,89.3c-1.1,0-2.1-0.3-2.8-1s-1.1-1.6-1.1-2.9c0-1.5,0.7-2.6,2-3.4
		c1.3-0.8,3.4-1.3,6.4-1.7c0-0.4,0-0.8-0.1-1.3s-0.2-0.8-0.4-1.1c-0.2-0.3-0.5-0.6-0.9-0.8c-0.4-0.2-0.8-0.3-1.4-0.3
		c-0.8,0-1.5,0.1-2.2,0.4s-1.3,0.6-1.8,1l-0.9-1.6c0.6-0.4,1.4-0.8,2.3-1.2c0.9-0.4,1.9-0.6,3-0.6c1.7,0,2.9,0.5,3.6,1.5
		c0.7,1,1.1,2.4,1.1,4.1v8.3h-1.9l-0.2-1.6H141c-0.7,0.5-1.4,1-2.1,1.4C138.1,89.1,137.3,89.3,136.5,89.3z M137.1,87.4
		c0.7,0,1.3-0.2,1.8-0.5c0.6-0.3,1.2-0.8,1.8-1.4v-3.8c-1.1,0.2-2.1,0.3-2.9,0.5c-0.8,0.2-1.4,0.4-1.9,0.7c-0.5,0.3-0.8,0.6-1,1
		c-0.2,0.4-0.3,0.8-0.3,1.2c0,0.8,0.2,1.3,0.7,1.7C135.9,87.2,136.5,87.4,137.1,87.4z"/>
	<path id="XMLID_53_" class="st3" d="M152.8,89.3c-0.9,0-1.7-0.2-2.5-0.5c-0.8-0.3-1.5-0.8-2-1.4c-0.6-0.6-1-1.4-1.3-2.2
		c-0.3-0.9-0.5-1.9-0.5-3c0-1.1,0.2-2.2,0.5-3c0.4-0.9,0.8-1.6,1.4-2.3c0.6-0.6,1.3-1.1,2.1-1.4c0.8-0.3,1.6-0.5,2.5-0.5
		c0.9,0,1.7,0.2,2.3,0.5s1.2,0.7,1.7,1.1l-1.2,1.5c-0.4-0.4-0.8-0.6-1.2-0.9s-0.9-0.3-1.5-0.3c-0.6,0-1.2,0.1-1.7,0.4
		s-1,0.6-1.3,1.1c-0.4,0.5-0.7,1-0.9,1.7c-0.2,0.6-0.3,1.4-0.3,2.1c0,0.8,0.1,1.5,0.3,2.1c0.2,0.6,0.5,1.2,0.9,1.6s0.8,0.8,1.3,1.1
		c0.5,0.3,1.1,0.4,1.7,0.4c0.6,0,1.2-0.1,1.8-0.4s1-0.6,1.4-1l1,1.5c-0.6,0.5-1.3,1-2,1.3C154.4,89.1,153.6,89.3,152.8,89.3z"/>
	<path id="XMLID_55_" class="st3" d="M162.9,88.9V77.2h-4.6v-1.9h11.4v1.9h-4.6v11.7H162.9z"/>
	<path id="XMLID_57_" class="st3" d="M177.9,89.3c-0.9,0-1.8-0.2-2.6-0.5c-0.8-0.3-1.5-0.8-2.1-1.4s-1-1.3-1.4-2.2
		c-0.3-0.9-0.5-1.9-0.5-3s0.2-2.1,0.5-3s0.8-1.6,1.4-2.3s1.2-1.1,1.9-1.4c0.7-0.3,1.5-0.5,2.3-0.5c0.9,0,1.6,0.2,2.3,0.4
		c0.7,0.3,1.2,0.7,1.7,1.3c0.5,0.6,0.8,1.2,1,2c0.2,0.8,0.4,1.7,0.4,2.6c0,0.2,0,0.5,0,0.7c0,0.2,0,0.4-0.1,0.6h-9.2
		c0.1,1.5,0.5,2.6,1.4,3.5c0.8,0.8,1.9,1.3,3.2,1.3c0.7,0,1.3-0.1,1.8-0.3c0.5-0.2,1.1-0.5,1.6-0.8l0.8,1.5c-0.6,0.4-1.3,0.7-2,1
		C179.7,89.1,178.9,89.3,177.9,89.3z M173.6,81h7.3c0-1.4-0.3-2.4-0.9-3.1s-1.4-1.1-2.5-1.1c-0.5,0-0.9,0.1-1.4,0.3
		s-0.8,0.5-1.2,0.8c-0.4,0.4-0.6,0.8-0.9,1.3C173.9,79.8,173.7,80.4,173.6,81z"/>
	<path id="XMLID_60_" class="st3" d="M186.3,94.7V75.3h1.9l0.2,1.6h0.1c0.6-0.5,1.3-1,2-1.3s1.5-0.6,2.3-0.6c0.9,0,1.7,0.2,2.3,0.5
		c0.7,0.3,1.2,0.8,1.7,1.4s0.8,1.3,1,2.2c0.2,0.8,0.4,1.8,0.4,2.9c0,1.2-0.2,2.2-0.5,3.1c-0.3,0.9-0.7,1.7-1.3,2.3
		c-0.5,0.6-1.2,1.1-1.9,1.4c-0.7,0.3-1.5,0.5-2.2,0.5c-0.6,0-1.3-0.1-1.9-0.4s-1.3-0.7-1.9-1.1l0.1,2.4v4.6H186.3z M191.9,87.3
		c0.6,0,1.1-0.1,1.6-0.4c0.5-0.3,0.9-0.6,1.2-1.1c0.3-0.5,0.6-1,0.8-1.7c0.2-0.7,0.3-1.4,0.3-2.3c0-0.7-0.1-1.4-0.2-2
		c-0.1-0.6-0.3-1.1-0.6-1.6c-0.3-0.4-0.7-0.8-1.1-1c-0.5-0.2-1-0.4-1.6-0.4c-0.6,0-1.2,0.2-1.8,0.5c-0.6,0.3-1.2,0.8-1.9,1.4v7.1
		c0.6,0.5,1.2,0.9,1.8,1.1S191.5,87.3,191.9,87.3z"/>
	<path id="XMLID_63_" class="st3" d="M207.2,89.3c-0.9,0-1.7-0.2-2.5-0.5c-0.8-0.3-1.5-0.8-2-1.4c-0.6-0.6-1-1.4-1.3-2.2
		c-0.3-0.9-0.5-1.9-0.5-3c0-1.1,0.2-2.2,0.5-3c0.4-0.9,0.8-1.6,1.4-2.3c0.6-0.6,1.3-1.1,2.1-1.4c0.8-0.3,1.6-0.5,2.5-0.5
		c0.9,0,1.7,0.2,2.3,0.5s1.2,0.7,1.7,1.1l-1.2,1.5c-0.4-0.4-0.8-0.6-1.2-0.9s-0.9-0.3-1.5-0.3c-0.6,0-1.2,0.1-1.7,0.4
		s-1,0.6-1.3,1.1c-0.4,0.5-0.7,1-0.9,1.7c-0.2,0.6-0.3,1.4-0.3,2.1c0,0.8,0.1,1.5,0.3,2.1c0.2,0.6,0.5,1.2,0.9,1.6s0.8,0.8,1.3,1.1
		c0.5,0.3,1.1,0.4,1.7,0.4c0.6,0,1.2-0.1,1.8-0.4s1-0.6,1.4-1l1,1.5c-0.6,0.5-1.3,1-2,1.3C208.8,89.1,208,89.3,207.2,89.3z"/>
	<path id="XMLID_65_" class="st3" d="M214.6,88.9V75.3h2.3v5.6h2.6l1.3-3c0.3-0.6,0.5-1.1,0.8-1.5c0.3-0.4,0.5-0.7,0.8-0.9
		c0.3-0.2,0.6-0.4,0.9-0.4s0.7-0.1,1-0.1c0.3,0,0.6,0,0.8,0.1l-0.4,2.2c-0.1,0-0.2-0.1-0.2-0.1c-0.1,0-0.1,0-0.2,0
		c-0.2,0-0.4,0-0.5,0.1c-0.2,0-0.3,0.1-0.5,0.3c-0.2,0.1-0.3,0.3-0.5,0.6c-0.2,0.2-0.3,0.6-0.5,1l-1.1,2.7l4.6,7.2h-2.5l-3.8-6.1
		h-2.7v6.1H214.6z"/>
	<path id="XMLID_67_" class="st3" d="M231.4,89.3c-1.1,0-2.1-0.3-2.8-1s-1.1-1.6-1.1-2.9c0-1.5,0.7-2.6,2-3.4
		c1.3-0.8,3.4-1.3,6.4-1.7c0-0.4,0-0.8-0.1-1.3s-0.2-0.8-0.4-1.1c-0.2-0.3-0.5-0.6-0.9-0.8c-0.4-0.2-0.8-0.3-1.4-0.3
		c-0.8,0-1.5,0.1-2.2,0.4s-1.3,0.6-1.8,1l-0.9-1.6c0.6-0.4,1.4-0.8,2.3-1.2c0.9-0.4,1.9-0.6,3-0.6c1.7,0,2.9,0.5,3.6,1.5
		c0.7,1,1.1,2.4,1.1,4.1v8.3h-1.9l-0.2-1.6h-0.1c-0.7,0.5-1.4,1-2.1,1.4C233.1,89.1,232.3,89.3,231.4,89.3z M232.1,87.4
		c0.7,0,1.3-0.2,1.8-0.5c0.6-0.3,1.2-0.8,1.8-1.4v-3.8c-1.1,0.2-2.1,0.3-2.9,0.5c-0.8,0.2-1.4,0.4-1.9,0.7c-0.5,0.3-0.8,0.6-1,1
		c-0.2,0.4-0.3,0.8-0.3,1.2c0,0.8,0.2,1.3,0.7,1.7C230.8,87.2,231.4,87.4,232.1,87.4z"/>
	<path id="XMLID_70_" class="st3" d="M249.9,88.9v-5.4h-2.5h0l-3.8,5.4H241l4.1-5.7c-0.9-0.3-1.6-0.7-2.2-1.3
		c-0.6-0.6-0.9-1.5-0.9-2.6c0-0.7,0.1-1.4,0.4-1.9s0.6-0.9,1.1-1.2s1-0.5,1.7-0.7c0.7-0.1,1.4-0.2,2.1-0.2h4.8v13.6H249.9z
		 M247.8,81.9h2.1v-4.8h-2.1c-1.1,0-1.9,0.2-2.5,0.5c-0.6,0.4-0.9,0.9-0.9,1.8s0.3,1.4,0.9,1.8C245.9,81.7,246.7,81.9,247.8,81.9z"
		/>
	<path id="XMLID_73_" class="st3" d="M262.4,88.9V75.3h5.2c0.7,0,1.4,0.1,2,0.2c0.6,0.1,1.1,0.3,1.6,0.6c0.4,0.3,0.8,0.6,1,1.1
		c0.2,0.4,0.4,1,0.4,1.6c0,0.8-0.2,1.4-0.6,1.9c-0.4,0.5-1,0.8-1.7,1v0.1c0.4,0.1,0.8,0.2,1.1,0.4s0.6,0.4,0.9,0.6
		c0.3,0.3,0.5,0.6,0.6,1s0.2,0.8,0.2,1.3c0,0.7-0.1,1.2-0.4,1.7c-0.3,0.5-0.6,0.9-1.1,1.2c-0.5,0.3-1,0.6-1.7,0.7s-1.4,0.2-2.2,0.2
		H262.4z M264.6,81h2.6c1.1,0,2-0.2,2.4-0.5c0.5-0.4,0.7-0.9,0.7-1.5c0-0.6-0.2-1.1-0.7-1.5s-1.2-0.5-2.3-0.5h-2.7V81z M264.6,87.3
		h2.9c1.1,0,2-0.2,2.5-0.6c0.6-0.4,0.8-1,0.8-1.8c0-0.7-0.3-1.2-0.9-1.6c-0.6-0.4-1.4-0.6-2.6-0.6h-2.8V87.3z"/>
	<path id="XMLID_77_" class="st3" d="M282.1,89.3c-0.9,0-1.8-0.2-2.6-0.5c-0.8-0.3-1.5-0.8-2.1-1.4s-1-1.3-1.4-2.2
		c-0.3-0.9-0.5-1.9-0.5-3s0.2-2.1,0.5-3s0.8-1.6,1.4-2.3s1.2-1.1,1.9-1.4c0.7-0.3,1.5-0.5,2.3-0.5c0.9,0,1.6,0.2,2.3,0.4
		c0.7,0.3,1.2,0.7,1.7,1.3c0.5,0.6,0.8,1.2,1,2c0.2,0.8,0.4,1.7,0.4,2.6c0,0.2,0,0.5,0,0.7c0,0.2,0,0.4-0.1,0.6h-9.2
		c0.1,1.5,0.5,2.6,1.4,3.5c0.8,0.8,1.9,1.3,3.2,1.3c0.7,0,1.3-0.1,1.8-0.3c0.5-0.2,1.1-0.5,1.6-0.8l0.8,1.5c-0.6,0.4-1.3,0.7-2,1
		C283.9,89.1,283.1,89.3,282.1,89.3z M277.8,81h7.3c0-1.4-0.3-2.4-0.9-3.1s-1.4-1.1-2.5-1.1c-0.5,0-0.9,0.1-1.4,0.3
		s-0.8,0.5-1.2,0.8c-0.4,0.4-0.6,0.8-0.9,1.3C278.1,79.8,277.9,80.4,277.8,81z"/>
	<path id="XMLID_80_" class="st3" d="M296.1,89.3c-2,0-3.6-0.7-4.7-2.2c-1.1-1.5-1.7-3.6-1.7-6.4c0-2.3,0.2-4.1,0.6-5.5
		c0.4-1.4,1-2.5,1.7-3.3c0.7-0.8,1.6-1.4,2.7-1.7c1.1-0.3,2.2-0.6,3.5-0.8c0.4-0.1,0.7-0.1,1-0.2c0.3,0,0.5-0.1,0.7-0.2
		c0.2-0.1,0.4-0.1,0.6-0.2c0.2-0.1,0.4-0.2,0.6-0.3l0.4,2.1c-0.4,0.2-0.8,0.4-1.2,0.5s-1,0.2-1.6,0.3c-1.1,0.2-2,0.3-2.8,0.5
		c-0.8,0.2-1.5,0.5-2,0.9s-0.9,1.1-1.2,1.9s-0.5,1.9-0.6,3.3c0.6-0.7,1.3-1.3,2.1-1.7c0.8-0.4,1.6-0.6,2.5-0.6
		c0.8,0,1.5,0.1,2.2,0.4s1.2,0.7,1.7,1.3c0.5,0.6,0.8,1.2,1.1,2c0.3,0.8,0.4,1.7,0.4,2.7c0,1.1-0.2,2.1-0.5,2.9
		c-0.3,0.9-0.7,1.6-1.3,2.2c-0.5,0.6-1.2,1.1-1.9,1.4C297.7,89.1,296.9,89.3,296.1,89.3z M296.1,87.4c0.5,0,1-0.1,1.4-0.4
		s0.8-0.6,1.1-1.1c0.3-0.5,0.6-1,0.8-1.6c0.2-0.6,0.3-1.3,0.3-2.1c0-1.4-0.3-2.5-1-3.3c-0.6-0.8-1.5-1.2-2.7-1.2
		c-0.7,0-1.3,0.2-2,0.5c-0.7,0.4-1.4,1-2.1,1.9v1.1c0,2,0.3,3.5,1,4.6S294.7,87.4,296.1,87.4z"/>
	<path id="XMLID_83_" class="st3" d="M304.6,82.8V81h6.4v1.8H304.6z"/>
	<path id="XMLID_85_" class="st3" d="M314.6,88.9v4.8h-2l-0.3-5.2v-1.5h0.7c0.2-0.1,0.4-0.3,0.5-0.5c0.2-0.2,0.3-0.5,0.5-0.9
		c0.1-0.4,0.3-1,0.4-1.7c0.1-0.7,0.3-1.6,0.4-2.7l0.7-6h8.5v11.7h2v1.5l-0.2,5.2h-2v-4.8H314.6z M317,81.8c-0.1,1.3-0.3,2.4-0.6,3.3
		c-0.3,0.8-0.5,1.5-0.9,2h6.3v-9.9h-4.3L317,81.8z"/>
	<path id="XMLID_88_" class="st3" d="M329,88.9V75.3h2.2V81c0,0.7,0,1.5-0.1,2.4c0,0.9-0.1,1.7-0.2,2.6h0.1c0.3-0.4,0.6-0.9,0.9-1.5
		c0.3-0.5,0.6-1,0.9-1.5l5.2-7.8h2.2v13.6H338v-5.7c0-0.7,0-1.5,0.1-2.4c0-0.9,0.1-1.8,0.2-2.6h-0.1c-0.3,0.4-0.6,0.9-0.9,1.5
		c-0.3,0.6-0.6,1-0.9,1.4l-5.2,7.8H329z"/>
	<path id="XMLID_90_" class="st3" d="M348.8,89.3c-1,0-1.8-0.1-2.7-0.4s-1.7-0.7-2.5-1.4l1-1.5c0.6,0.5,1.3,0.9,1.9,1.1
		c0.7,0.2,1.3,0.3,2,0.3c0.5,0,0.9-0.1,1.3-0.2c0.4-0.1,0.8-0.3,1.1-0.5c0.3-0.2,0.6-0.5,0.7-0.8c0.2-0.3,0.3-0.6,0.3-1
		c0-0.8-0.3-1.4-0.9-1.7c-0.6-0.4-1.5-0.6-2.6-0.6h-1.9V81h1.5c1.1,0,1.9-0.2,2.5-0.6c0.5-0.4,0.8-0.9,0.8-1.6
		c0-0.7-0.3-1.2-0.8-1.6c-0.5-0.3-1.2-0.5-2-0.5c-0.8,0-1.5,0.1-2,0.3c-0.6,0.2-1.1,0.5-1.7,0.9l-1-1.5c0.7-0.5,1.4-0.8,2.1-1.1
		c0.8-0.3,1.7-0.4,2.6-0.4c0.7,0,1.3,0.1,1.9,0.2c0.6,0.1,1.1,0.4,1.6,0.7c0.4,0.3,0.8,0.7,1.1,1.1c0.3,0.5,0.4,1,0.4,1.6
		c0,0.7-0.2,1.3-0.6,1.8c-0.4,0.5-0.9,1-1.7,1.2v0.1c0.8,0.2,1.5,0.6,2,1.1s0.8,1.3,0.8,2.3c0,0.6-0.1,1.2-0.4,1.7s-0.7,0.9-1.2,1.3
		c-0.5,0.4-1.1,0.6-1.8,0.8C350.2,89.2,349.5,89.3,348.8,89.3z"/>
	<path id="XMLID_92_" class="st3" d="M360.8,89.3c-1.1,0-2.1-0.3-2.8-1s-1.1-1.6-1.1-2.9c0-1.5,0.7-2.6,2-3.4
		c1.3-0.8,3.4-1.3,6.4-1.7c0-0.4,0-0.8-0.1-1.3s-0.2-0.8-0.4-1.1c-0.2-0.3-0.5-0.6-0.9-0.8c-0.4-0.2-0.8-0.3-1.4-0.3
		c-0.8,0-1.5,0.1-2.2,0.4s-1.3,0.6-1.8,1l-0.9-1.6c0.6-0.4,1.4-0.8,2.3-1.2c0.9-0.4,1.9-0.6,3-0.6c1.7,0,2.9,0.5,3.6,1.5
		c0.7,1,1.1,2.4,1.1,4.1v8.3h-1.9l-0.2-1.6h-0.1c-0.7,0.5-1.4,1-2.1,1.4C362.4,89.1,361.6,89.3,360.8,89.3z M361.4,87.4
		c0.7,0,1.3-0.2,1.8-0.5c0.6-0.3,1.2-0.8,1.8-1.4v-3.8c-1.1,0.2-2.1,0.3-2.9,0.5c-0.8,0.2-1.4,0.4-1.9,0.7c-0.5,0.3-0.8,0.6-1,1
		c-0.2,0.4-0.3,0.8-0.3,1.2c0,0.8,0.2,1.3,0.7,1.7C360.2,87.2,360.8,87.4,361.4,87.4z"/>
	<path id="XMLID_95_" class="st3" d="M371.7,88.9V75.3h2.2V81c0,0.7,0,1.5-0.1,2.4c0,0.9-0.1,1.7-0.2,2.6h0.1
		c0.3-0.4,0.6-0.9,0.9-1.5c0.3-0.5,0.6-1,0.9-1.5l5.2-7.8h2.2v13.6h-2.2v-5.7c0-0.7,0-1.5,0.1-2.4c0-0.9,0.1-1.8,0.2-2.6h-0.1
		c-0.3,0.4-0.6,0.9-0.9,1.5c-0.3,0.6-0.6,1-0.9,1.4l-5.2,7.8H371.7z M377.4,72.9c-0.8,0-1.4-0.1-2-0.4c-0.5-0.2-1-0.6-1.3-1
		c-0.4-0.4-0.6-0.9-0.8-1.4c-0.2-0.5-0.3-1-0.3-1.6h1.9c0,0.4,0.1,0.8,0.2,1.1c0.1,0.4,0.2,0.7,0.4,0.9c0.2,0.3,0.4,0.5,0.8,0.6
		c0.3,0.2,0.7,0.2,1.2,0.2c0.5,0,0.9-0.1,1.2-0.2c0.3-0.2,0.6-0.4,0.8-0.6c0.2-0.3,0.3-0.6,0.4-0.9c0.1-0.4,0.1-0.7,0.2-1.1h1.9
		c0,0.5-0.1,1.1-0.3,1.6c-0.2,0.5-0.4,1-0.8,1.4s-0.8,0.7-1.3,1C378.9,72.8,378.2,72.9,377.4,72.9z"/>
	<path id="XMLID_98_" class="st3" d="M387.6,88.9V75.3h2.3v5.5h6.6v-5.5h2.3v13.6h-2.3v-6h-6.6v6H387.6z"/>
	<path id="XMLID_100_" class="st3" d="M406.4,89.3c-1.1,0-2.1-0.3-2.8-1s-1.1-1.6-1.1-2.9c0-1.5,0.7-2.6,2-3.4
		c1.3-0.8,3.4-1.3,6.4-1.7c0-0.4,0-0.8-0.1-1.3s-0.2-0.8-0.4-1.1c-0.2-0.3-0.5-0.6-0.9-0.8c-0.4-0.2-0.8-0.3-1.4-0.3
		c-0.8,0-1.5,0.1-2.2,0.4s-1.3,0.6-1.8,1l-0.9-1.6c0.6-0.4,1.4-0.8,2.3-1.2c0.9-0.4,1.9-0.6,3-0.6c1.7,0,2.9,0.5,3.6,1.5
		c0.7,1,1.1,2.4,1.1,4.1v8.3h-1.9l-0.2-1.6h-0.1c-0.7,0.5-1.4,1-2.1,1.4C408.1,89.1,407.3,89.3,406.4,89.3z M407.1,87.4
		c0.7,0,1.3-0.2,1.8-0.5c0.6-0.3,1.2-0.8,1.8-1.4v-3.8c-1.1,0.2-2.1,0.3-2.9,0.5c-0.8,0.2-1.4,0.4-1.9,0.7c-0.5,0.3-0.8,0.6-1,1
		c-0.2,0.4-0.3,0.8-0.3,1.2c0,0.8,0.2,1.3,0.7,1.7C405.9,87.2,406.4,87.4,407.1,87.4z"/>
</g>
</svg>
