<?xml version="1.0" encoding="UTF-8" standalone="no"?>
<svg width="38px" height="42px" viewBox="0 0 38 42" version="1.1" xmlns="http://www.w3.org/2000/svg" xmlns:xlink="http://www.w3.org/1999/xlink">
    <!-- Generator: Sketch 46.2 (44496) - http://www.bohemiancoding.com/sketch -->
    <title>Page 1</title>
    <desc>Created with Sketch.</desc>
    <defs></defs>
    <g id="Page-1" stroke="none" stroke-width="1" fill="none" fill-rule="evenodd">
        <g id="1.ArtWolf---Large-Desktop" transform="translate(-1097.000000, -1866.000000)" fill="#FEFEFE">
            <g id="Page-1" transform="translate(1097.000000, 1866.000000)">
                <polygon id="Fill-1" points="18.8442 41.9110781 24.9391402 35.1707344 29.6764735 41.8044375 34.3410547 38.4047344 29.6033966 31.7710313 37.8571915 28.053375 12.9376359 13.3986563"></polygon>
                <g id="Group-12" transform="translate(0.000000, 0.239203)">
                    <path d="M8.12462735,13.1594859 L8.12462735,13.1594859 C8.12462735,13.7993297 7.60626838,14.3230172 6.97293504,14.3230172 L1.15178974,14.3230172 C0.51845641,14.3230172 9.74358974e-05,13.7993297 9.74358974e-05,13.1594859 L9.74358974e-05,13.1594859 C9.74358974e-05,12.5196422 0.51845641,11.9959547 1.15178974,11.9959547 L6.97293504,11.9959547 C7.60626838,11.9959547 8.12462735,12.5196422 8.12462735,13.1594859" id="Fill-2"></path>
                    <path d="M9.53426496,16.5976453 L9.53426496,16.5976453 C9.9821453,17.0501297 9.9821453,17.7907078 9.53426496,18.2431922 L5.41824786,22.4015203 C4.97004274,22.8543328 4.23732479,22.8543328 3.78944444,22.4015203 L3.78944444,22.4015203 C3.34123932,21.9490359 3.34123932,21.2087859 3.78944444,20.7559734 L7.90546154,16.5976453 C8.35334188,16.1451609 9.08638462,16.1451609 9.53426496,16.5976453" id="Fill-4"></path>
                    <path d="M16.3405846,9.72132656 L16.3405846,9.72132656 C15.8927043,9.26884219 15.8927043,8.52826406 16.3405846,8.07577969 L20.4566017,3.91745156 C20.9044821,3.46463906 21.6375248,3.46463906 22.0854051,3.91745156 L22.0854051,3.91745156 C22.5336103,4.36993594 22.5336103,5.11018594 22.0854051,5.56299844 L17.969388,9.72132656 C17.5215077,10.1738109 16.788465,10.1738109 16.3405846,9.72132656" id="Fill-6"></path>
                    <path d="M12.9374085,8.29719844 L12.9374085,8.29719844 C12.3040752,8.29719844 11.7857162,7.77351094 11.7857162,7.13366719 L11.7857162,1.25268281 C11.7857162,0.612839062 12.3040752,0.0891515625 12.9374085,0.0891515625 L12.9374085,0.0891515625 C13.5707419,0.0891515625 14.0891009,0.612839062 14.0891009,1.25268281 L14.0891009,7.13366719 C14.0891009,7.77351094 13.5707419,8.29719844 12.9374085,8.29719844" id="Fill-8"></path>
                    <path d="M9.53426496,9.72132656 L9.53426496,9.72132656 C9.08638462,10.1738109 8.35334188,10.1738109 7.90546154,9.72132656 L3.78944444,5.56299844 C3.34123932,5.11018594 3.34123932,4.36993594 3.78944444,3.91745156 L3.78944444,3.91745156 C4.23732479,3.46463906 4.97004274,3.46463906 5.41824786,3.91745156 L9.53426496,8.07577969 C9.9821453,8.52826406 9.9821453,9.26884219 9.53426496,9.72132656" id="Fill-10"></path>
                </g>
            </g>
        </g>
    </g>
</svg>